<?xml version="1.0" encoding="utf-8" standalone="no"?>
<!DOCTYPE svg PUBLIC "-//W3C//DTD SVG 1.1//EN"
  "http://www.w3.org/Graphics/SVG/1.1/DTD/svg11.dtd">
<!-- Created with matplotlib (https://matplotlib.org/) -->
<svg height="342.081686pt" version="1.1" viewBox="0 0 337.456131 342.081686" width="337.456131pt" xmlns="http://www.w3.org/2000/svg" xmlns:xlink="http://www.w3.org/1999/xlink">
 <metadata>
  <rdf:RDF xmlns:cc="http://creativecommons.org/ns#" xmlns:dc="http://purl.org/dc/elements/1.1/" xmlns:rdf="http://www.w3.org/1999/02/22-rdf-syntax-ns#">
   <cc:Work>
    <dc:type rdf:resource="http://purl.org/dc/dcmitype/StillImage"/>
    <dc:date>2021-06-13T01:22:58.166416</dc:date>
    <dc:format>image/svg+xml</dc:format>
    <dc:creator>
     <cc:Agent>
      <dc:title>Matplotlib v3.3.3, https://matplotlib.org/</dc:title>
     </cc:Agent>
    </dc:creator>
   </cc:Work>
  </rdf:RDF>
 </metadata>
 <defs>
  <style type="text/css">*{stroke-linecap:butt;stroke-linejoin:round;}</style>
 </defs>
 <g id="figure_1">
  <g id="patch_1">
   <path d="M 0 342.081686 
L 337.456131 342.081686 
L 337.456131 0 
L 0 0 
z
" style="fill:#ffffff;"/>
  </g>
  <g id="axes_1">
   <g id="patch_2">
    <path d="M 47.048487 300.085876 
L 324.248487 300.085876 
L 324.248487 22.885876 
L 47.048487 22.885876 
z
" style="fill:#fafafa;"/>
   </g>
   <g id="matplotlib.axis_1">
    <g id="xtick_1">
     <g id="line2d_1">
      <path clip-path="url(#p8536f4f08e)" d="M 49.766134 300.085876 
L 49.766134 22.885876 
" style="fill:none;stroke:#b0b0b0;stroke-linecap:square;stroke-opacity:0.3;"/>
     </g>
     <g id="line2d_2"/>
     <g id="text_1">
      <!-- $\mathdefault{0.0}$ -->
      <g style="fill:#333333;" transform="translate(41.040843 315.771753)scale(0.14 -0.14)">
       <defs>
        <path d="M 42 31.640625 
C 42 37.75 41.90625 48.125 37.703125 56.109375 
C 34 63.109375 28.09375 65.59375 22.90625 65.59375 
C 18.09375 65.59375 12 63.40625 8.203125 56.203125 
C 4.203125 48.71875 3.796875 39.4375 3.796875 31.640625 
C 3.796875 25.953125 3.90625 17.28125 7 9.671875 
C 11.296875 -0.609375 19 -2 22.90625 -2 
C 27.5 -2 34.5 -0.109375 38.59375 9.375 
C 41.59375 16.28125 42 24.359375 42 31.640625 
z
M 22.90625 -0.40625 
C 16.5 -0.40625 12.703125 5.078125 11.296875 12.6875 
C 10.203125 18.5625 10.203125 27.15625 10.203125 32.75 
C 10.203125 40.4375 10.203125 46.828125 11.5 52.921875 
C 13.40625 61.390625 19 64 22.90625 64 
C 27 64 32.296875 61.296875 34.203125 53.125 
C 35.5 47.4375 35.59375 40.734375 35.59375 32.75 
C 35.59375 26.25 35.59375 18.265625 34.40625 12.375 
C 32.296875 1.484375 26.40625 -0.40625 22.90625 -0.40625 
z
" id="CMR17-48"/>
        <path d="M 18.40625 4.796875 
C 18.40625 7.6875 16 9.671875 13.59375 9.671875 
C 10.703125 9.671875 8.703125 7.28125 8.703125 4.890625 
C 8.703125 2 11.09375 0 13.5 0 
C 16.40625 0 18.40625 2.390625 18.40625 4.796875 
z
" id="CMMI12-58"/>
       </defs>
       <use transform="scale(0.996264)" xlink:href="#CMR17-48"/>
       <use transform="translate(45.690477 0)scale(0.996264)" xlink:href="#CMMI12-58"/>
       <use transform="translate(72.787654 0)scale(0.996264)" xlink:href="#CMR17-48"/>
      </g>
     </g>
    </g>
    <g id="xtick_2">
     <g id="line2d_3">
      <path clip-path="url(#p8536f4f08e)" d="M 104.119075 300.085876 
L 104.119075 22.885876 
" style="fill:none;stroke:#b0b0b0;stroke-linecap:square;stroke-opacity:0.3;"/>
     </g>
     <g id="line2d_4"/>
     <g id="text_2">
      <!-- $\mathdefault{0.2}$ -->
      <g style="fill:#333333;" transform="translate(95.393784 315.771753)scale(0.14 -0.14)">
       <defs>
        <path d="M 41.703125 15.453125 
L 39.90625 15.453125 
C 38.90625 8.375 38.09375 7.171875 37.703125 6.5625 
C 37.203125 5.765625 30 5.765625 28.59375 5.765625 
L 9.40625 5.765625 
C 13 9.671875 20 16.75 28.5 24.953125 
C 34.59375 30.734375 41.703125 37.53125 41.703125 47.421875 
C 41.703125 59.21875 32.296875 66 21.796875 66 
C 10.796875 66 4.09375 56.3125 4.09375 47.34375 
C 4.09375 43.4375 7 42.9375 8.203125 42.9375 
C 9.203125 42.9375 12.203125 43.546875 12.203125 47.03125 
C 12.203125 50.109375 9.59375 51 8.203125 51 
C 7.59375 51 7 50.90625 6.59375 50.703125 
C 8.5 59.21875 14.296875 63.40625 20.40625 63.40625 
C 29.09375 63.40625 34.796875 56.515625 34.796875 47.421875 
C 34.796875 38.734375 29.703125 31.25 24 24.75 
L 4.09375 2.28125 
L 4.09375 0 
L 39.296875 0 
z
" id="CMR17-50"/>
       </defs>
       <use transform="scale(0.996264)" xlink:href="#CMR17-48"/>
       <use transform="translate(45.690477 0)scale(0.996264)" xlink:href="#CMMI12-58"/>
       <use transform="translate(72.787654 0)scale(0.996264)" xlink:href="#CMR17-50"/>
      </g>
     </g>
    </g>
    <g id="xtick_3">
     <g id="line2d_5">
      <path clip-path="url(#p8536f4f08e)" d="M 158.472016 300.085876 
L 158.472016 22.885876 
" style="fill:none;stroke:#b0b0b0;stroke-linecap:square;stroke-opacity:0.3;"/>
     </g>
     <g id="line2d_6"/>
     <g id="text_3">
      <!-- $\mathdefault{0.4}$ -->
      <g style="fill:#333333;" transform="translate(149.746725 315.771753)scale(0.14 -0.14)">
       <defs>
        <path d="M 33.59375 64.40625 
C 33.59375 66.5 33.5 66.5 31.703125 66.5 
L 2 19.59375 
L 2 17 
L 27.796875 17 
L 27.796875 7.140625 
C 27.796875 3.5 27.59375 2.5 20.59375 2.5 
L 18.703125 2.5 
L 18.703125 0 
C 21.90625 0 27.296875 0 30.703125 0 
C 34.09375 0 39.5 0 42.703125 0 
L 42.703125 2.5 
L 40.796875 2.5 
C 33.796875 2.5 33.59375 3.5 33.59375 7.140625 
L 33.59375 17 
L 43.796875 17 
L 43.796875 19.59375 
L 33.59375 19.59375 
z
M 28.09375 57.859375 
L 28.09375 19.59375 
L 4 19.59375 
z
" id="CMR17-52"/>
       </defs>
       <use transform="scale(0.996264)" xlink:href="#CMR17-48"/>
       <use transform="translate(45.690477 0)scale(0.996264)" xlink:href="#CMMI12-58"/>
       <use transform="translate(72.787654 0)scale(0.996264)" xlink:href="#CMR17-52"/>
      </g>
     </g>
    </g>
    <g id="xtick_4">
     <g id="line2d_7">
      <path clip-path="url(#p8536f4f08e)" d="M 212.824957 300.085876 
L 212.824957 22.885876 
" style="fill:none;stroke:#b0b0b0;stroke-linecap:square;stroke-opacity:0.3;"/>
     </g>
     <g id="line2d_8"/>
     <g id="text_4">
      <!-- $\mathdefault{0.6}$ -->
      <g style="fill:#333333;" transform="translate(204.099666 315.771753)scale(0.14 -0.14)">
       <defs>
        <path d="M 10.59375 34 
C 10.59375 57.65625 21.796875 63 28.296875 63 
C 30.40625 63 35.5 62.640625 37.5 59 
C 35.90625 59 32.90625 59 32.90625 55.515625 
C 32.90625 52.828125 35.09375 51.921875 36.5 51.921875 
C 37.40625 51.921875 40.09375 52.3125 40.09375 55.625 
C 40.09375 61.78125 35.09375 65.296875 28.203125 65.296875 
C 16.296875 65.296875 3.796875 52.96875 3.796875 31 
C 3.796875 3.953125 15.09375 -2 23.09375 -2 
C 32.796875 -2 42 6.671875 42 20.046875 
C 42 32.515625 33.90625 41.59375 23.703125 41.59375 
C 17.59375 41.59375 13.09375 37.609375 10.59375 30.625 
z
M 23.09375 0.390625 
C 10.796875 0.390625 10.796875 18.75 10.796875 22.4375 
C 10.796875 29.625 14.203125 40 23.5 40 
C 25.203125 40 30.09375 40 33.40625 33.125 
C 35.203125 29.21875 35.203125 25.140625 35.203125 20.140625 
C 35.203125 14.75 35.203125 10.78125 33.09375 6.78125 
C 30.90625 2.671875 27.703125 0.390625 23.09375 0.390625 
z
" id="CMR17-54"/>
       </defs>
       <use transform="scale(0.996264)" xlink:href="#CMR17-48"/>
       <use transform="translate(45.690477 0)scale(0.996264)" xlink:href="#CMMI12-58"/>
       <use transform="translate(72.787654 0)scale(0.996264)" xlink:href="#CMR17-54"/>
      </g>
     </g>
    </g>
    <g id="xtick_5">
     <g id="line2d_9">
      <path clip-path="url(#p8536f4f08e)" d="M 267.177899 300.085876 
L 267.177899 22.885876 
" style="fill:none;stroke:#b0b0b0;stroke-linecap:square;stroke-opacity:0.3;"/>
     </g>
     <g id="line2d_10"/>
     <g id="text_5">
      <!-- $\mathdefault{0.8}$ -->
      <g style="fill:#333333;" transform="translate(258.452608 315.771753)scale(0.14 -0.14)">
       <defs>
        <path d="M 27.203125 35.375 
C 33.5 38.546875 39.90625 43.328125 39.90625 50.984375 
C 39.90625 60.015625 31.09375 65.296875 23 65.296875 
C 13.90625 65.296875 5.90625 58.734375 5.90625 49.6875 
C 5.90625 47.203125 6.5 42.921875 10.40625 39.140625 
C 11.40625 38.15625 15.59375 35.171875 18.296875 33.28125 
C 13.796875 30.984375 3.296875 25.53125 3.296875 14.59375 
C 3.296875 4.359375 13.09375 -2 22.796875 -2 
C 33.5 -2 42.5 5.65625 42.5 15.78125 
C 42.5 24.84375 36.40625 29.015625 32.40625 31.703125 
z
M 14.09375 44.09375 
C 13.296875 44.59375 9.296875 47.671875 9.296875 52.359375 
C 9.296875 58.421875 15.59375 63 22.796875 63 
C 30.703125 63 36.5 57.4375 36.5 50.96875 
C 36.5 41.703125 26.09375 36.421875 25.59375 36.421875 
C 25.5 36.421875 25.40625 36.421875 24.59375 37.03125 
z
M 32.5 23.734375 
C 34 22.640625 38.796875 19.375 38.796875 13.296875 
C 38.796875 5.953125 31.40625 0.390625 23 0.390625 
C 13.90625 0.390625 7 6.84375 7 14.6875 
C 7 22.546875 13.09375 29.09375 20 32.1875 
z
" id="CMR17-56"/>
       </defs>
       <use transform="scale(0.996264)" xlink:href="#CMR17-48"/>
       <use transform="translate(45.690477 0)scale(0.996264)" xlink:href="#CMMI12-58"/>
       <use transform="translate(72.787654 0)scale(0.996264)" xlink:href="#CMR17-56"/>
      </g>
     </g>
    </g>
    <g id="xtick_6">
     <g id="line2d_11">
      <path clip-path="url(#p8536f4f08e)" d="M 321.53084 300.085876 
L 321.53084 22.885876 
" style="fill:none;stroke:#b0b0b0;stroke-linecap:square;stroke-opacity:0.3;"/>
     </g>
     <g id="line2d_12"/>
     <g id="text_6">
      <!-- $\mathdefault{1.0}$ -->
      <g style="fill:#333333;" transform="translate(312.805549 315.771753)scale(0.14 -0.14)">
       <defs>
        <path d="M 26.59375 63.40625 
C 26.59375 65.5 26.5 65.5 25.09375 65.5 
C 21.203125 61.1875 15.296875 59.796875 9.703125 59.796875 
C 9.40625 59.796875 8.90625 59.796875 8.796875 59.5 
C 8.703125 59.296875 8.703125 59.09375 8.703125 57 
C 11.796875 57 17 57.59375 21 59.984375 
L 21 7.203125 
C 21 3.6875 20.796875 2.5 12.203125 2.5 
L 9.203125 2.5 
L 9.203125 0 
C 14 0 19 0 23.796875 0 
C 28.59375 0 33.59375 0 38.40625 0 
L 38.40625 2.5 
L 35.40625 2.5 
C 26.796875 2.5 26.59375 3.59375 26.59375 7.15625 
z
" id="CMR17-49"/>
       </defs>
       <use transform="scale(0.996264)" xlink:href="#CMR17-49"/>
       <use transform="translate(45.690477 0)scale(0.996264)" xlink:href="#CMMI12-58"/>
       <use transform="translate(72.787654 0)scale(0.996264)" xlink:href="#CMR17-48"/>
      </g>
     </g>
    </g>
    <g id="text_7">
     <!-- Predicted proportion in interval -->
     <g transform="translate(90.525051 332.169658)scale(0.14 -0.14)">
      <defs>
       <path d="M 19.796875 31.90625 
L 35.796875 31.90625 
C 48.703125 31.90625 58.09375 40.28125 58.09375 49.75 
C 58.09375 59.234375 48.90625 68 35.796875 68 
L 5.203125 68 
L 5.203125 65.40625 
C 12.09375 65.40625 13.203125 65.40625 13.203125 60.921875 
L 13.203125 6.96875 
C 13.203125 2.5 12.09375 2.5 5.203125 2.5 
L 5.203125 0 
C 8.09375 0 13.40625 0 16.5 0 
C 19.59375 0 24.90625 0 27.796875 0 
L 27.796875 2.5 
C 20.90625 2.5 19.796875 2.5 19.796875 6.96875 
z
M 19.59375 34 
L 19.59375 61.53125 
C 19.59375 64.921875 19.796875 65.40625 23.796875 65.40625 
L 33.90625 65.40625 
C 46.796875 65.40625 50.5 58.03125 50.5 49.75 
C 50.5 40.6875 46.09375 34 33.90625 34 
z
" id="CMR17-80"/>
       <path d="M 15 23.390625 
C 15 33 19.09375 42 26.59375 42 
C 27.296875 42 28 41.90625 28.703125 41.59375 
C 28.703125 41.59375 26.5 40.890625 26.5 38.3125 
C 26.5 35.90625 28.40625 34.90625 29.90625 34.90625 
C 31.09375 34.90625 33.296875 35.609375 33.296875 38.40625 
C 33.296875 41.609375 30.09375 43.59375 26.703125 43.59375 
C 19.09375 43.59375 15.796875 36.203125 14.796875 32.703125 
L 14.703125 32.703125 
L 14.703125 43.59375 
L 3.09375 42.5 
L 3.09375 39.90625 
C 9 39.90625 9.90625 39.296875 9.90625 34.5 
L 9.90625 6.6875 
C 9.90625 2.875 9.5 2.390625 3.09375 2.390625 
L 3.09375 -0.203125 
C 5.5 0 10.09375 0 12.703125 0 
C 15.59375 0 20.703125 0 23.40625 -0.203125 
L 23.40625 2.390625 
C 16.203125 2.390625 15 2.390625 15 6.875 
z
" id="CMR17-114"/>
       <path d="M 38.09375 23 
C 38.5 23.40625 38.5 23.609375 38.5 24.625 
C 38.5 34.96875 33.09375 44 21.703125 44 
C 11.09375 44 2.703125 33.890625 2.703125 21.609375 
C 2.703125 8.609375 12.203125 -1 22.796875 -1 
C 34 -1 38.40625 9.484375 38.40625 11.5625 
C 38.40625 12.25 37.796875 12.25 37.59375 12.25 
C 36.90625 12.25 36.796875 12.046875 36.40625 10.875 
C 34.203125 4.140625 28.703125 0.796875 23.5 0.796875 
C 19.203125 0.796875 14.90625 3.171875 12.203125 7.5 
C 9.09375 12.546875 9.09375 18.375 9.09375 23 
z
M 9.203125 24.5 
C 9.90625 39.140625 17.59375 42.40625 21.59375 42.40625 
C 28.40625 42.40625 33 35.890625 33.09375 24.5 
z
" id="CMR17-101"/>
       <path d="M 29.203125 67.59375 
L 29.203125 65 
C 35.09375 65 36 64.40625 36 59.6875 
L 36 36.640625 
C 35.59375 37.140625 31.5 43.59375 23.40625 43.59375 
C 13.203125 43.59375 3.296875 34.5 3.296875 21.3125 
C 3.296875 8.203125 12.59375 -1 22.40625 -1 
C 30.90625 -1 35.296875 5.265625 35.796875 5.9375 
L 35.796875 -0.984375 
L 47.90625 -0.984375 
L 47.90625 2 
C 42 2 41.09375 2.59375 41.09375 7.390625 
L 41.09375 68.6875 
z
M 35.796875 11.796875 
C 35.796875 8.796875 34 6.09375 31.703125 4.09375 
C 28.296875 1.09375 24.90625 0.59375 23 0.59375 
C 20.09375 0.59375 9.703125 2.09375 9.703125 21.1875 
C 9.703125 40.8125 21.296875 42 23.90625 42 
C 28.5 42 32.203125 39.40625 34.5 35.796875 
C 35.796875 33.703125 35.796875 33.40625 35.796875 31.609375 
z
" id="CMR17-100"/>
       <path d="M 15.5 61.078125 
C 15.5 63.265625 13.703125 65.15625 11.40625 65.15625 
C 9.203125 65.15625 7.296875 63.375 7.296875 61.078125 
C 7.296875 58.890625 9.09375 57 11.40625 57 
C 13.59375 57 15.5 58.796875 15.5 61.078125 
z
M 3.796875 42.28125 
L 3.796875 39.703125 
C 9.40625 39.703125 10.203125 39.09375 10.203125 34.328125 
L 10.203125 6.671875 
C 10.203125 2.875 9.796875 2.390625 3.40625 2.390625 
L 3.40625 -0.203125 
C 5.796875 0 10.09375 0 12.59375 0 
C 15 0 19.09375 0 21.40625 -0.203125 
L 21.40625 2.390625 
C 15.5 2.390625 15.296875 2.984375 15.296875 6.5625 
L 15.296875 43.375 
z
" id="CMR17-105"/>
       <path d="M 34.90625 35 
C 33 35 30.203125 35 30.203125 31.515625 
C 30.203125 28.71875 32.5 27.921875 33.796875 27.921875 
C 34.5 27.921875 37.40625 28.234375 37.40625 31.625 
C 37.40625 38.546875 30.59375 43.796875 22.90625 43.796875 
C 12.296875 43.796875 3.296875 34.03125 3.296875 21.296875 
C 3.296875 8.0625 12.703125 -1 22.90625 -1 
C 35.296875 -1 38.40625 10.578125 38.40625 11.6875 
C 38.40625 12.09375 38.296875 12.390625 37.59375 12.390625 
C 36.90625 12.390625 36.796875 12.296875 36.40625 10.984375 
C 33.796875 2.8125 28.09375 0.796875 23.796875 0.796875 
C 17.40625 0.796875 9.703125 6.671875 9.703125 21.390625 
C 9.703125 36.53125 17.09375 42 23 42 
C 26.90625 42 32.703125 40.203125 34.90625 35 
z
" id="CMR17-99"/>
       <path d="M 15.09375 40 
L 29.09375 40 
L 29.09375 42.578125 
L 15.09375 42.578125 
L 15.09375 61 
L 13.296875 61 
C 13.09375 50.703125 9.59375 41.6875 1.09375 41.6875 
L 1.09375 40 
L 9.796875 40 
L 9.796875 12.046875 
C 9.796875 10.15625 9.796875 -1 21.40625 -1 
C 27.296875 -1 30.703125 4.78125 30.703125 12.140625 
L 30.703125 17.8125 
L 28.90625 17.8125 
L 28.90625 12.234375 
C 28.90625 5.375 26.203125 0.796875 22 0.796875 
C 19.09375 0.796875 15.09375 2.78125 15.09375 11.84375 
z
" id="CMR17-116"/>
       <path d="M 22 -16.609375 
C 15.59375 -16.609375 15.203125 -16.203125 15.203125 -12.328125 
L 15.203125 6.28125 
C 18.09375 2.09375 22.296875 -0.59375 27.59375 -0.59375 
C 37.59375 -0.59375 47.703125 8.171875 47.703125 21.6875 
C 47.703125 34.234375 39 43.78125 28.703125 43.78125 
C 22.703125 43.78125 17.796875 40.5 15 36.53125 
L 15 43.78125 
L 3.09375 42.6875 
L 3.09375 40.109375 
C 9 40.109375 9.90625 39.5 9.90625 34.734375 
L 9.90625 -12.328125 
C 9.90625 -16.109375 9.5 -16.609375 3.09375 -16.609375 
L 3.09375 -19.1875 
C 5.5 -19 9.90625 -19 12.5 -19 
C 15.09375 -19 19.59375 -19 22 -19.1875 
z
M 15.203125 31.4375 
C 15.203125 32.84375 15.203125 34.921875 19.09375 38.609375 
C 19.59375 39.015625 23 42 28 42 
C 35.296875 42 41.296875 32.9375 41.296875 21.59375 
C 41.296875 10.25 34.90625 1 27 1 
C 23.40625 1 19.5 2.6875 16.5 7.375 
C 15.203125 9.5625 15.203125 10.15625 15.203125 11.75 
z
" id="CMR17-112"/>
       <path d="M 43.09375 21.1875 
C 43.09375 34 33.796875 44 22.90625 44 
C 12 44 2.703125 34 2.703125 21.1875 
C 2.703125 8.609375 12 -1 22.90625 -1 
C 33.796875 -1 43.09375 8.609375 43.09375 21.1875 
z
M 22.90625 0.796875 
C 18.203125 0.796875 14.203125 3.59375 11.90625 7.5 
C 9.40625 11.984375 9.09375 17.59375 9.09375 22 
C 9.09375 26.203125 9.296875 31.40625 11.90625 35.90625 
C 13.90625 39.203125 17.796875 42.40625 22.90625 42.40625 
C 27.40625 42.40625 31.203125 39.90625 33.59375 36.40625 
C 36.703125 31.703125 36.703125 25.109375 36.703125 22 
C 36.703125 18.09375 36.5 12.109375 33.796875 7.296875 
C 31 2.703125 26.703125 0.796875 22.90625 0.796875 
z
" id="CMR17-111"/>
       <path d="M 41.5 30.203125 
C 41.5 35.296875 40.5 43.59375 28.703125 43.59375 
C 20.796875 43.59375 16.703125 37.5 15.203125 33.5 
L 15.09375 33.5 
L 15.09375 43.59375 
L 3.296875 42.5 
L 3.296875 39.90625 
C 9.203125 39.90625 10.09375 39.296875 10.09375 34.5 
L 10.09375 6.6875 
C 10.09375 2.875 9.703125 2.390625 3.296875 2.390625 
L 3.296875 -0.203125 
C 5.703125 0 10.09375 0 12.703125 0 
C 15.296875 0 19.796875 0 22.203125 -0.203125 
L 22.203125 2.390625 
C 15.796875 2.390625 15.40625 2.78125 15.40625 6.6875 
L 15.40625 25.90625 
C 15.40625 35.109375 21 42 28 42 
C 35.40625 42 36.203125 35.40625 36.203125 30.59375 
L 36.203125 6.6875 
C 36.203125 2.875 35.796875 2.390625 29.40625 2.390625 
L 29.40625 -0.203125 
C 31.796875 0 36.203125 0 38.796875 0 
C 41.40625 0 45.90625 0 48.296875 -0.203125 
L 48.296875 2.390625 
C 41.90625 2.390625 41.5 2.78125 41.5 6.6875 
z
" id="CMR17-110"/>
       <path d="M 39.09375 33.796875 
C 40 36 41.59375 40 47.40625 40 
L 47.40625 42.59375 
C 45.5 42.59375 43 42.59375 41.09375 42.59375 
C 39 42.59375 35.703125 42.59375 33.703125 42.6875 
L 33.703125 40.09375 
C 36.203125 39.890625 37.59375 38.703125 37.59375 36.109375 
C 37.59375 35.203125 37.59375 35 37 33.609375 
L 26 5.890625 
L 14.09375 35.71875 
C 13.5 37.015625 13.5 37.203125 13.5 37.609375 
C 13.5 40 16.796875 40 18.296875 40 
L 18.296875 42.6875 
C 15.90625 42.59375 11.5 42.59375 9 42.59375 
C 6.296875 42.59375 3.203125 42.59375 1 42.6875 
L 1 40 
C 4.796875 40 6.90625 40 8.09375 36.90625 
L 22.59375 0.6875 
C 23.203125 -0.796875 23.296875 -1 24.203125 -1 
C 25.09375 -1 25.203125 -0.796875 25.796875 0.6875 
z
" id="CMR17-118"/>
       <path d="M 36 25.828125 
C 36 32.375 36 35.84375 31.796875 39.734375 
C 28.09375 43 23.796875 44 20.40625 44 
C 12.5 44 6.796875 37.609375 6.796875 30.796875 
C 6.796875 27 9.796875 27 10.40625 27 
C 11.703125 27 14 27.78125 14 30.53125 
C 14 33 12.09375 34.078125 10.40625 34.078125 
C 10 34.078125 9.5 33.96875 9.203125 33.875 
C 11.296875 40.5 16.703125 42.40625 20.203125 42.40625 
C 25.203125 42.40625 30.703125 37.953125 30.703125 29.453125 
L 30.703125 25 
C 24.796875 25 17.703125 24.203125 12.09375 21.203125 
C 5.796875 17.703125 4 12.703125 4 8.90625 
C 4 1.203125 13 -1 18.296875 -1 
C 23.796875 -1 28.90625 2.171875 31.09375 7.984375 
C 31.296875 3.640625 34.09375 -0.28125 38.5 -0.28125 
C 40.59375 -0.28125 45.90625 1.09375 45.90625 8.859375 
L 45.90625 14.375 
L 44.09375 14.375 
L 44.09375 8.78125 
C 44.09375 2.78125 41.40625 2 40.09375 2 
C 36 2 36 7.15625 36 11.53125 
z
M 30.703125 13.59375 
C 30.703125 4.953125 24.5 0.59375 19 0.59375 
C 14 0.59375 10.09375 4.296875 10.09375 8.90625 
C 10.09375 11.890625 11.40625 17.1875 17.203125 20.390625 
C 22 23.09375 27.5 23.5 30.703125 23.5 
z
" id="CMR17-97"/>
       <path d="M 15.296875 68.6875 
L 3.40625 67.59375 
L 3.40625 65 
C 9.296875 65 10.203125 64.40625 10.203125 59.640625 
L 10.203125 6.65625 
C 10.203125 2.875 9.796875 2.390625 3.40625 2.390625 
L 3.40625 -0.203125 
C 5.796875 0 10.203125 0 12.703125 0 
C 15.296875 0 19.703125 0 22.09375 -0.203125 
L 22.09375 2.390625 
C 15.703125 2.390625 15.296875 2.78125 15.296875 6.65625 
z
" id="CMR17-108"/>
      </defs>
      <use transform="scale(0.996264)" xlink:href="#CMR17-80"/>
      <use transform="translate(62.586301 0)scale(0.996264)" xlink:href="#CMR17-114"/>
      <use transform="translate(97.867068 0)scale(0.996264)" xlink:href="#CMR17-101"/>
      <use transform="translate(138.352729 0)scale(0.996264)" xlink:href="#CMR17-100"/>
      <use transform="translate(189.248099 0)scale(0.996264)" xlink:href="#CMR17-105"/>
      <use transform="translate(214.119157 0)scale(0.996264)" xlink:href="#CMR17-99"/>
      <use transform="translate(254.604818 0)scale(0.996264)" xlink:href="#CMR17-116"/>
      <use transform="translate(289.885585 0)scale(0.996264)" xlink:href="#CMR17-101"/>
      <use transform="translate(330.371246 0)scale(0.996264)" xlink:href="#CMR17-100"/>
      <use transform="translate(411.342582 0)scale(0.996264)" xlink:href="#CMR17-112"/>
      <use transform="translate(462.237952 0)scale(0.996264)" xlink:href="#CMR17-114"/>
      <use transform="translate(497.518719 0)scale(0.996264)" xlink:href="#CMR17-111"/>
      <use transform="translate(543.209197 0)scale(0.996264)" xlink:href="#CMR17-112"/>
      <use transform="translate(596.707005 0)scale(0.996264)" xlink:href="#CMR17-111"/>
      <use transform="translate(642.397482 0)scale(0.996264)" xlink:href="#CMR17-114"/>
      <use transform="translate(677.67825 0)scale(0.996264)" xlink:href="#CMR17-116"/>
      <use transform="translate(712.959018 0)scale(0.996264)" xlink:href="#CMR17-105"/>
      <use transform="translate(737.830076 0)scale(0.996264)" xlink:href="#CMR17-111"/>
      <use transform="translate(783.520553 0)scale(0.996264)" xlink:href="#CMR17-110"/>
      <use transform="translate(864.49189 0)scale(0.996264)" xlink:href="#CMR17-105"/>
      <use transform="translate(889.362948 0)scale(0.996264)" xlink:href="#CMR17-110"/>
      <use transform="translate(970.334284 0)scale(0.996264)" xlink:href="#CMR17-105"/>
      <use transform="translate(995.205343 0)scale(0.996264)" xlink:href="#CMR17-110"/>
      <use transform="translate(1043.498258 0)scale(0.996264)" xlink:href="#CMR17-116"/>
      <use transform="translate(1078.779026 0)scale(0.996264)" xlink:href="#CMR17-101"/>
      <use transform="translate(1119.264687 0)scale(0.996264)" xlink:href="#CMR17-114"/>
      <use transform="translate(1154.545455 0)scale(0.996264)" xlink:href="#CMR17-118"/>
      <use transform="translate(1197.633554 0)scale(0.996264)" xlink:href="#CMR17-97"/>
      <use transform="translate(1243.324031 0)scale(0.996264)" xlink:href="#CMR17-108"/>
     </g>
    </g>
   </g>
   <g id="matplotlib.axis_2">
    <g id="ytick_1">
     <g id="line2d_13">
      <path clip-path="url(#p8536f4f08e)" d="M 47.048487 297.368229 
L 324.248487 297.368229 
" style="fill:none;stroke:#b0b0b0;stroke-linecap:square;stroke-opacity:0.3;"/>
     </g>
     <g id="line2d_14"/>
     <g id="text_8">
      <!-- $\mathdefault{0.0}$ -->
      <g style="fill:#333333;" transform="translate(23.597905 302.211168)scale(0.14 -0.14)">
       <use transform="scale(0.996264)" xlink:href="#CMR17-48"/>
       <use transform="translate(45.690477 0)scale(0.996264)" xlink:href="#CMMI12-58"/>
       <use transform="translate(72.787654 0)scale(0.996264)" xlink:href="#CMR17-48"/>
      </g>
     </g>
    </g>
    <g id="ytick_2">
     <g id="line2d_15">
      <path clip-path="url(#p8536f4f08e)" d="M 47.048487 243.015288 
L 324.248487 243.015288 
" style="fill:none;stroke:#b0b0b0;stroke-linecap:square;stroke-opacity:0.3;"/>
     </g>
     <g id="line2d_16"/>
     <g id="text_9">
      <!-- $\mathdefault{0.2}$ -->
      <g style="fill:#333333;" transform="translate(23.597905 247.858226)scale(0.14 -0.14)">
       <use transform="scale(0.996264)" xlink:href="#CMR17-48"/>
       <use transform="translate(45.690477 0)scale(0.996264)" xlink:href="#CMMI12-58"/>
       <use transform="translate(72.787654 0)scale(0.996264)" xlink:href="#CMR17-50"/>
      </g>
     </g>
    </g>
    <g id="ytick_3">
     <g id="line2d_17">
      <path clip-path="url(#p8536f4f08e)" d="M 47.048487 188.662347 
L 324.248487 188.662347 
" style="fill:none;stroke:#b0b0b0;stroke-linecap:square;stroke-opacity:0.3;"/>
     </g>
     <g id="line2d_18"/>
     <g id="text_10">
      <!-- $\mathdefault{0.4}$ -->
      <g style="fill:#333333;" transform="translate(23.597905 193.505285)scale(0.14 -0.14)">
       <use transform="scale(0.996264)" xlink:href="#CMR17-48"/>
       <use transform="translate(45.690477 0)scale(0.996264)" xlink:href="#CMMI12-58"/>
       <use transform="translate(72.787654 0)scale(0.996264)" xlink:href="#CMR17-52"/>
      </g>
     </g>
    </g>
    <g id="ytick_4">
     <g id="line2d_19">
      <path clip-path="url(#p8536f4f08e)" d="M 47.048487 134.309406 
L 324.248487 134.309406 
" style="fill:none;stroke:#b0b0b0;stroke-linecap:square;stroke-opacity:0.3;"/>
     </g>
     <g id="line2d_20"/>
     <g id="text_11">
      <!-- $\mathdefault{0.6}$ -->
      <g style="fill:#333333;" transform="translate(23.597905 139.152344)scale(0.14 -0.14)">
       <use transform="scale(0.996264)" xlink:href="#CMR17-48"/>
       <use transform="translate(45.690477 0)scale(0.996264)" xlink:href="#CMMI12-58"/>
       <use transform="translate(72.787654 0)scale(0.996264)" xlink:href="#CMR17-54"/>
      </g>
     </g>
    </g>
    <g id="ytick_5">
     <g id="line2d_21">
      <path clip-path="url(#p8536f4f08e)" d="M 47.048487 79.956465 
L 324.248487 79.956465 
" style="fill:none;stroke:#b0b0b0;stroke-linecap:square;stroke-opacity:0.3;"/>
     </g>
     <g id="line2d_22"/>
     <g id="text_12">
      <!-- $\mathdefault{0.8}$ -->
      <g style="fill:#333333;" transform="translate(23.597905 84.799403)scale(0.14 -0.14)">
       <use transform="scale(0.996264)" xlink:href="#CMR17-48"/>
       <use transform="translate(45.690477 0)scale(0.996264)" xlink:href="#CMMI12-58"/>
       <use transform="translate(72.787654 0)scale(0.996264)" xlink:href="#CMR17-56"/>
      </g>
     </g>
    </g>
    <g id="ytick_6">
     <g id="line2d_23">
      <path clip-path="url(#p8536f4f08e)" d="M 47.048487 25.603524 
L 324.248487 25.603524 
" style="fill:none;stroke:#b0b0b0;stroke-linecap:square;stroke-opacity:0.3;"/>
     </g>
     <g id="line2d_24"/>
     <g id="text_13">
      <!-- $\mathdefault{1.0}$ -->
      <g style="fill:#333333;" transform="translate(23.597905 30.446462)scale(0.14 -0.14)">
       <use transform="scale(0.996264)" xlink:href="#CMR17-49"/>
       <use transform="translate(45.690477 0)scale(0.996264)" xlink:href="#CMMI12-58"/>
       <use transform="translate(72.787654 0)scale(0.996264)" xlink:href="#CMR17-48"/>
      </g>
     </g>
    </g>
    <g id="text_14">
     <!-- Observed proportion in interval -->
     <g transform="translate(16.885876 255.794892)rotate(-90)scale(0.14 -0.14)">
      <defs>
       <path d="M 67.296875 33.359375 
C 67.296875 53.703125 52.59375 69 36 69 
C 19 69 4.59375 53.5 4.59375 33.359375 
C 4.59375 13.203125 19.203125 -2 35.90625 -2 
C 53 -2 67.296875 13.5 67.296875 33.359375 
z
M 36 -0.203125 
C 24.59375 -0.203125 12.203125 11.109375 12.203125 34.640625 
C 12.203125 58.0625 25.796875 67.203125 35.90625 67.203125 
C 46.5 67.203125 59.703125 57.78125 59.703125 34.640625 
C 59.703125 10.71875 47 -0.203125 36 -0.203125 
z
" id="CMR17-79"/>
       <path d="M 15 68.6875 
L 3.09375 67.59375 
L 3.09375 65 
C 9 65 9.90625 64.40625 9.90625 59.640625 
L 9.90625 -0.203125 
L 11.703125 -0.203125 
L 14.59375 6.890625 
C 17.5 2.203125 21.796875 -1 27.59375 -1 
C 37.59375 -1 47.703125 7.8125 47.703125 21.40625 
C 47.703125 34.1875 38.703125 43.59375 28.59375 43.59375 
C 22.40625 43.59375 18 40.296875 15 36.40625 
z
M 15.203125 31.3125 
C 15.203125 33.09375 15.203125 33.40625 16.59375 35.5 
C 20.5 41.515625 26.09375 42 28 42 
C 31 42 41.296875 40.390625 41.296875 21.5 
C 41.296875 1.6875 29.5 0.59375 27.09375 0.59375 
C 24 0.59375 19.5 1.78125 16.296875 7.59375 
C 15.203125 9.5 15.203125 9.703125 15.203125 11.484375 
z
" id="CMR17-98"/>
       <path d="M 30.90625 42.140625 
C 30.90625 43.953125 30.796875 44.046875 30.203125 44.046875 
C 29.796875 44.046875 29.703125 43.953125 28.5 42.453125 
C 28.203125 42.046875 27.296875 41.03125 27 40.640625 
C 23.796875 44.046875 19.296875 44.046875 17.59375 44.046875 
C 6.5 44.046875 2.5 38.234375 2.5 32.4375 
C 2.5 23.40625 12.703125 21.328125 15.59375 20.703125 
C 21.90625 19.421875 24.09375 19.015625 26.203125 17.203125 
C 27.5 16.015625 29.703125 13.8125 29.703125 10.21875 
C 29.703125 6 27.296875 0.59375 18.09375 0.59375 
C 9.40625 0.59375 6.296875 7.1875 4.5 15.953125 
C 4.203125 17.34375 4.203125 17.453125 3.40625 17.453125 
C 2.59375 17.453125 2.5 17.34375 2.5 15.359375 
L 2.5 0.984375 
C 2.5 -0.796875 2.59375 -0.90625 3.203125 -0.90625 
C 3.703125 -0.90625 3.796875 -0.796875 4.296875 0 
C 4.90625 0.890625 6.40625 3.296875 7 4.3125 
C 9 1.609375 12.5 -1 18.09375 -1 
C 28 -1 33.296875 4.421875 33.296875 12.25 
C 33.296875 17.375 30.59375 20.078125 29.296875 21.28125 
C 26.296875 24.390625 22.796875 25.09375 18.59375 25.890625 
C 13.09375 27.109375 6.09375 28.515625 6.09375 34.640625 
C 6.09375 37.234375 7.5 42.765625 17.59375 42.765625 
C 28.296875 42.765625 28.90625 32.71875 29.09375 29.5 
C 29.203125 29 29.703125 28.890625 30 28.890625 
C 30.90625 28.890625 30.90625 29.203125 30.90625 30.90625 
z
" id="CMR17-115"/>
      </defs>
      <use transform="scale(0.996264)" xlink:href="#CMR17-79"/>
      <use transform="translate(71.714788 0)scale(0.996264)" xlink:href="#CMR17-98"/>
      <use transform="translate(122.610158 0)scale(0.996264)" xlink:href="#CMR17-115"/>
      <use transform="translate(158.411496 0)scale(0.996264)" xlink:href="#CMR17-101"/>
      <use transform="translate(198.897156 0)scale(0.996264)" xlink:href="#CMR17-114"/>
      <use transform="translate(234.177924 0)scale(0.996264)" xlink:href="#CMR17-118"/>
      <use transform="translate(279.868386 0)scale(0.996264)" xlink:href="#CMR17-101"/>
      <use transform="translate(320.354046 0)scale(0.996264)" xlink:href="#CMR17-100"/>
      <use transform="translate(401.325383 0)scale(0.996264)" xlink:href="#CMR17-112"/>
      <use transform="translate(452.220752 0)scale(0.996264)" xlink:href="#CMR17-114"/>
      <use transform="translate(487.50152 0)scale(0.996264)" xlink:href="#CMR17-111"/>
      <use transform="translate(533.191997 0)scale(0.996264)" xlink:href="#CMR17-112"/>
      <use transform="translate(586.689806 0)scale(0.996264)" xlink:href="#CMR17-111"/>
      <use transform="translate(632.380283 0)scale(0.996264)" xlink:href="#CMR17-114"/>
      <use transform="translate(667.661051 0)scale(0.996264)" xlink:href="#CMR17-116"/>
      <use transform="translate(702.941819 0)scale(0.996264)" xlink:href="#CMR17-105"/>
      <use transform="translate(727.812877 0)scale(0.996264)" xlink:href="#CMR17-111"/>
      <use transform="translate(773.503354 0)scale(0.996264)" xlink:href="#CMR17-110"/>
      <use transform="translate(854.47469 0)scale(0.996264)" xlink:href="#CMR17-105"/>
      <use transform="translate(879.345749 0)scale(0.996264)" xlink:href="#CMR17-110"/>
      <use transform="translate(960.317085 0)scale(0.996264)" xlink:href="#CMR17-105"/>
      <use transform="translate(985.188143 0)scale(0.996264)" xlink:href="#CMR17-110"/>
      <use transform="translate(1033.481059 0)scale(0.996264)" xlink:href="#CMR17-116"/>
      <use transform="translate(1068.761827 0)scale(0.996264)" xlink:href="#CMR17-101"/>
      <use transform="translate(1109.247487 0)scale(0.996264)" xlink:href="#CMR17-114"/>
      <use transform="translate(1144.528255 0)scale(0.996264)" xlink:href="#CMR17-118"/>
      <use transform="translate(1187.616354 0)scale(0.996264)" xlink:href="#CMR17-97"/>
      <use transform="translate(1233.306832 0)scale(0.996264)" xlink:href="#CMR17-108"/>
     </g>
    </g>
   </g>
   <g id="PolyCollection_1">
    <path clip-path="url(#p8536f4f08e)" d="M 49.766134 297.368229 
L 49.766134 297.368229 
L 52.511232 294.623131 
L 55.25633 291.878033 
L 58.001428 289.132935 
L 60.746526 286.387837 
L 63.491624 283.642739 
L 66.236722 280.897641 
L 68.98182 278.152543 
L 71.726918 275.407445 
L 74.472016 272.662347 
L 77.217114 269.917249 
L 79.962212 267.172151 
L 82.70731 264.427053 
L 85.452408 261.681955 
L 88.197506 258.936857 
L 90.942605 256.191759 
L 93.687703 253.446661 
L 96.432801 250.701563 
L 99.177899 247.956465 
L 101.922997 245.211367 
L 104.668095 242.466269 
L 107.413193 239.721171 
L 110.158291 236.976073 
L 112.903389 234.230974 
L 115.648487 231.485876 
L 118.393585 228.740778 
L 121.138683 225.99568 
L 123.883781 223.250582 
L 126.628879 220.505484 
L 129.373977 217.760386 
L 132.119075 215.015288 
L 134.864173 212.27019 
L 137.609271 209.525092 
L 140.354369 206.779994 
L 143.099467 204.034896 
L 145.844565 201.289798 
L 148.589663 198.5447 
L 151.334761 195.799602 
L 154.079859 193.054504 
L 156.824957 190.309406 
L 159.570056 187.564308 
L 162.315154 184.81921 
L 165.060252 182.074112 
L 167.80535 179.329014 
L 170.550448 176.583916 
L 173.295546 173.838818 
L 176.040644 171.09372 
L 178.785742 168.348622 
L 181.53084 165.603524 
L 184.275938 162.858425 
L 187.021036 160.113327 
L 189.766134 157.368229 
L 192.511232 154.623131 
L 195.25633 151.878033 
L 198.001428 149.132935 
L 200.746526 146.387837 
L 203.491624 143.642739 
L 206.236722 140.897641 
L 208.98182 138.152543 
L 211.726918 135.407445 
L 214.472016 132.662347 
L 217.217114 129.917249 
L 219.962212 127.172151 
L 222.70731 124.427053 
L 225.452408 121.681955 
L 228.197506 118.936857 
L 230.942605 116.191759 
L 233.687703 113.446661 
L 236.432801 110.701563 
L 239.177899 107.956465 
L 241.922997 105.211367 
L 244.668095 102.466269 
L 247.413193 99.721171 
L 250.158291 96.976073 
L 252.903389 94.230974 
L 255.648487 91.485876 
L 258.393585 88.740778 
L 261.138683 85.99568 
L 263.883781 83.250582 
L 266.628879 80.505484 
L 269.373977 77.760386 
L 272.119075 75.015288 
L 274.864173 72.27019 
L 277.609271 69.525092 
L 280.354369 66.779994 
L 283.099467 64.034896 
L 285.844565 61.289798 
L 288.589663 58.5447 
L 291.334761 55.799602 
L 294.079859 53.054504 
L 296.824957 50.309406 
L 299.570056 47.564308 
L 302.315154 44.81921 
L 305.060252 42.074112 
L 307.80535 39.329014 
L 310.550448 36.583916 
L 313.295546 33.838818 
L 316.040644 31.09372 
L 318.785742 28.348622 
L 321.53084 25.603524 
L 321.53084 25.603524 
L 321.53084 25.603524 
L 318.785742 25.603524 
L 316.040644 25.603524 
L 313.295546 25.603524 
L 310.550448 25.603524 
L 307.80535 25.603524 
L 305.060252 25.603524 
L 302.315154 25.603524 
L 299.570056 25.603524 
L 296.824957 26.021623 
L 294.079859 26.021623 
L 291.334761 26.021623 
L 288.589663 26.021623 
L 285.844565 26.021623 
L 283.099467 26.021623 
L 280.354369 26.021623 
L 277.609271 26.021623 
L 274.864173 26.021623 
L 272.119075 26.021623 
L 269.373977 26.857822 
L 266.628879 27.275922 
L 263.883781 27.694021 
L 261.138683 27.694021 
L 258.393585 28.53022 
L 255.648487 29.784519 
L 252.903389 30.202619 
L 250.158291 30.620718 
L 247.413193 31.875017 
L 244.668095 33.129315 
L 241.922997 33.547415 
L 239.177899 34.801714 
L 236.432801 36.056012 
L 233.687703 37.310311 
L 230.942605 38.14651 
L 228.197506 39.818908 
L 225.452408 40.655107 
L 222.70731 42.745605 
L 219.962212 44.418003 
L 217.217114 45.254202 
L 214.472016 45.672302 
L 211.726918 48.180899 
L 208.98182 50.689496 
L 206.236722 53.616193 
L 203.491624 57.797189 
L 200.746526 62.396284 
L 198.001428 64.486781 
L 195.25633 66.995379 
L 192.511232 67.831578 
L 189.766134 69.922076 
L 187.021036 73.266872 
L 184.275938 76.193569 
L 181.53084 79.956465 
L 178.785742 83.301261 
L 176.040644 85.391759 
L 173.295546 87.064157 
L 170.550448 91.245152 
L 167.80535 95.844247 
L 165.060252 100.443343 
L 162.315154 104.206238 
L 159.570056 107.969134 
L 156.824957 110.477732 
L 154.079859 113.822528 
L 151.334761 116.749225 
L 148.589663 119.257822 
L 145.844565 122.602619 
L 143.099467 125.111216 
L 140.354369 128.874112 
L 137.609271 133.055107 
L 134.864173 136.399904 
L 132.119075 140.1628 
L 129.373977 142.671397 
L 126.628879 147.688591 
L 123.883781 150.197189 
L 121.138683 157.722981 
L 118.393585 164.412573 
L 115.648487 167.33927 
L 112.903389 173.192664 
L 110.158291 176.95556 
L 107.413193 181.136555 
L 104.668095 188.662347 
L 101.922997 193.679542 
L 99.177899 199.532935 
L 96.432801 203.713931 
L 93.687703 208.731125 
L 90.942605 211.657822 
L 88.197506 217.929315 
L 85.452408 223.364609 
L 82.70731 229.218003 
L 79.962212 232.5628 
L 77.217114 240.506691 
L 74.472016 245.941985 
L 71.726918 251.795379 
L 68.98182 257.648772 
L 66.236722 264.338365 
L 63.491624 269.35556 
L 60.746526 274.372754 
L 58.001428 278.55375 
L 55.25633 286.079542 
L 52.511232 292.769134 
L 49.766134 297.368229 
z
" style="fill:#1f77b4;fill-opacity:0.2;"/>
   </g>
   <g id="line2d_25">
    <path clip-path="url(#p8536f4f08e)" d="M 49.766134 297.368229 
L 321.53084 25.603524 
" style="fill:none;stroke:#ff7f0e;stroke-dasharray:7.4,3.2;stroke-dashoffset:0;stroke-width:2;"/>
   </g>
   <g id="line2d_26">
    <path clip-path="url(#p8536f4f08e)" d="M 49.766134 297.368229 
L 52.511232 292.769134 
L 55.25633 286.079542 
L 58.001428 278.55375 
L 60.746526 274.372754 
L 63.491624 269.35556 
L 66.236722 264.338365 
L 68.98182 257.648772 
L 71.726918 251.795379 
L 74.472016 245.941985 
L 77.217114 240.506691 
L 79.962212 232.5628 
L 82.70731 229.218003 
L 85.452408 223.364609 
L 88.197506 217.929315 
L 90.942605 211.657822 
L 93.687703 208.731125 
L 96.432801 203.713931 
L 99.177899 199.532935 
L 101.922997 193.679542 
L 104.668095 188.662347 
L 107.413193 181.136555 
L 110.158291 176.95556 
L 112.903389 173.192664 
L 115.648487 167.33927 
L 118.393585 164.412573 
L 121.138683 157.722981 
L 123.883781 150.197189 
L 126.628879 147.688591 
L 129.373977 142.671397 
L 132.119075 140.1628 
L 134.864173 136.399904 
L 137.609271 133.055107 
L 140.354369 128.874112 
L 143.099467 125.111216 
L 145.844565 122.602619 
L 148.589663 119.257822 
L 151.334761 116.749225 
L 154.079859 113.822528 
L 156.824957 110.477732 
L 159.570056 107.969134 
L 162.315154 104.206238 
L 165.060252 100.443343 
L 167.80535 95.844247 
L 170.550448 91.245152 
L 173.295546 87.064157 
L 176.040644 85.391759 
L 178.785742 83.301261 
L 181.53084 79.956465 
L 184.275938 76.193569 
L 187.021036 73.266872 
L 189.766134 69.922076 
L 192.511232 67.831578 
L 195.25633 66.995379 
L 198.001428 64.486781 
L 200.746526 62.396284 
L 203.491624 57.797189 
L 206.236722 53.616193 
L 208.98182 50.689496 
L 211.726918 48.180899 
L 214.472016 45.672302 
L 217.217114 45.254202 
L 219.962212 44.418003 
L 222.70731 42.745605 
L 225.452408 40.655107 
L 228.197506 39.818908 
L 230.942605 38.14651 
L 233.687703 37.310311 
L 236.432801 36.056012 
L 239.177899 34.801714 
L 241.922997 33.547415 
L 244.668095 33.129315 
L 247.413193 31.875017 
L 250.158291 30.620718 
L 252.903389 30.202619 
L 255.648487 29.784519 
L 258.393585 28.53022 
L 261.138683 27.694021 
L 263.883781 27.694021 
L 266.628879 27.275922 
L 269.373977 26.857822 
L 272.119075 26.021623 
L 274.864173 26.021623 
L 277.609271 26.021623 
L 280.354369 26.021623 
L 283.099467 26.021623 
L 285.844565 26.021623 
L 288.589663 26.021623 
L 291.334761 26.021623 
L 294.079859 26.021623 
L 296.824957 26.021623 
L 299.570056 25.603524 
L 302.315154 25.603524 
L 305.060252 25.603524 
L 307.80535 25.603524 
L 310.550448 25.603524 
L 313.295546 25.603524 
L 316.040644 25.603524 
L 318.785742 25.603524 
L 321.53084 25.603524 
" style="fill:none;stroke:#1f77b4;stroke-linecap:square;stroke-width:2;"/>
   </g>
   <g id="patch_3">
    <path d="M 47.048487 300.085876 
L 47.048487 22.885876 
" style="fill:none;stroke:#777777;stroke-linecap:square;stroke-linejoin:miter;"/>
   </g>
   <g id="patch_4">
    <path d="M 324.248487 300.085876 
L 324.248487 22.885876 
" style="fill:none;stroke:#777777;stroke-linecap:square;stroke-linejoin:miter;"/>
   </g>
   <g id="patch_5">
    <path d="M 47.048487 300.085876 
L 324.248487 300.085876 
" style="fill:none;stroke:#777777;stroke-linecap:square;stroke-linejoin:miter;"/>
   </g>
   <g id="patch_6">
    <path d="M 47.048487 22.885876 
L 324.248487 22.885876 
" style="fill:none;stroke:#777777;stroke-linecap:square;stroke-linejoin:miter;"/>
   </g>
   <g id="text_15">
    <!-- Miscalibration area = 0.21 -->
    <g transform="translate(172.587728 281.520857)scale(0.11662 -0.11662)">
     <defs>
      <path d="M 20.90625 66 
C 20.296875 67.5 20.203125 67.5 18.09375 67.5 
L 5.296875 67.5 
L 5.296875 65 
C 12.203125 65 13.296875 65 13.296875 60.546875 
L 13.296875 9.53125 
C 13.296875 7.046875 13.296875 2.390625 5.296875 2.390625 
L 5.296875 -0.203125 
C 7.59375 0 11.796875 0 14.296875 0 
C 16.796875 0 21 0 23.296875 -0.203125 
L 23.296875 2.390625 
C 15.296875 2.390625 15.296875 7.046875 15.296875 9.53125 
L 15.296875 64.609375 
L 15.40625 64.609375 
L 38.90625 1.390625 
C 39.296875 0.390625 39.5 -0.203125 40.296875 -0.203125 
C 41.09375 -0.203125 41.296875 0.390625 41.703125 1.390625 
L 65.40625 65.09375 
L 65.5 65.09375 
L 65.5 6.84375 
C 65.5 2.390625 64.40625 2.390625 57.5 2.390625 
L 57.5 -0.203125 
C 60.203125 0 65.59375 0 68.5 0 
C 71.40625 0 76.90625 0 79.59375 -0.203125 
L 79.59375 2.390625 
C 72.703125 2.390625 71.59375 2.390625 71.59375 6.84375 
L 71.59375 60.546875 
C 71.59375 65 72.703125 65 79.59375 65 
L 79.59375 67.5 
L 66.90625 67.5 
C 64.796875 67.5 64.703125 67.40625 64.09375 65.90625 
L 42.5 7.84375 
z
" id="CMR17-77"/>
      <path d="M 64.296875 31.515625 
C 65.796875 31.515625 67.296875 31.515625 67.296875 33.203125 
C 67.296875 35 65.59375 35 63.90625 35 
L 8 35 
C 6.296875 35 4.59375 35 4.59375 33.203125 
C 4.59375 31.515625 6.09375 31.515625 7.59375 31.515625 
z
M 63.90625 14 
C 65.59375 14 67.296875 14 67.296875 15.796875 
C 67.296875 17.484375 65.796875 17.484375 64.296875 17.484375 
L 7.59375 17.484375 
C 6.09375 17.484375 4.59375 17.484375 4.59375 15.796875 
C 4.59375 14 6.296875 14 8 14 
z
" id="CMR17-61"/>
      <path d="M 16.59375 4.078125 
C 16.59375 6.5625 14.59375 8.15625 12.5 8.15625 
C 10.5 8.15625 8.40625 6.5625 8.40625 4.078125 
C 8.40625 1.59375 10.40625 0 12.5 0 
C 14.5 0 16.59375 1.59375 16.59375 4.078125 
z
" id="CMR17-46"/>
     </defs>
     <use transform="scale(0.996264)" xlink:href="#CMR17-77"/>
     <use transform="translate(84.686941 0)scale(0.996264)" xlink:href="#CMR17-105"/>
     <use transform="translate(109.557999 0)scale(0.996264)" xlink:href="#CMR17-115"/>
     <use transform="translate(145.359337 0)scale(0.996264)" xlink:href="#CMR17-99"/>
     <use transform="translate(185.844997 0)scale(0.996264)" xlink:href="#CMR17-97"/>
     <use transform="translate(231.535474 0)scale(0.996264)" xlink:href="#CMR17-108"/>
     <use transform="translate(256.406533 0)scale(0.996264)" xlink:href="#CMR17-105"/>
     <use transform="translate(281.277591 0)scale(0.996264)" xlink:href="#CMR17-98"/>
     <use transform="translate(332.172961 0)scale(0.996264)" xlink:href="#CMR17-114"/>
     <use transform="translate(367.453729 0)scale(0.996264)" xlink:href="#CMR17-97"/>
     <use transform="translate(413.144206 0)scale(0.996264)" xlink:href="#CMR17-116"/>
     <use transform="translate(448.424974 0)scale(0.996264)" xlink:href="#CMR17-105"/>
     <use transform="translate(473.296032 0)scale(0.996264)" xlink:href="#CMR17-111"/>
     <use transform="translate(518.986509 0)scale(0.996264)" xlink:href="#CMR17-110"/>
     <use transform="translate(599.957845 0)scale(0.996264)" xlink:href="#CMR17-97"/>
     <use transform="translate(645.648323 0)scale(0.996264)" xlink:href="#CMR17-114"/>
     <use transform="translate(680.92909 0)scale(0.996264)" xlink:href="#CMR17-101"/>
     <use transform="translate(721.414751 0)scale(0.996264)" xlink:href="#CMR17-97"/>
     <use transform="translate(797.181194 0)scale(0.996264)" xlink:href="#CMR17-61"/>
     <use transform="translate(898.971949 0)scale(0.996264)" xlink:href="#CMR17-48"/>
     <use transform="translate(944.662426 0)scale(0.996264)" xlink:href="#CMR17-46"/>
     <use transform="translate(969.533485 0)scale(0.996264)" xlink:href="#CMR17-50"/>
     <use transform="translate(1015.223962 0)scale(0.996264)" xlink:href="#CMR17-49"/>
    </g>
   </g>
   <g id="text_16">
    <!-- Average Calibration -->
    <g transform="translate(125.522268 16.885876)scale(0.14 -0.14)">
     <defs>
      <path d="M 36.296875 68.40625 
C 35.796875 69.703125 35.59375 70 34.59375 70 
C 33.59375 70 33.40625 69.703125 32.90625 68.40625 
L 11.703125 8.84375 
C 9.796875 3.484375 5.796875 2.390625 2.296875 2.390625 
L 2.296875 -0.203125 
C 4.09375 0 8.09375 0 10 0 
C 12.5 0 16.5 0 18.90625 -0.203125 
L 18.90625 2.390625 
C 14.203125 2.390625 13.5 5.640625 13.5 6.859375 
C 13.5 7.765625 13.703125 8.28125 13.90625 8.890625 
L 19.203125 24 
L 45.40625 24 
L 51.40625 6.90625 
C 51.90625 5.703125 51.90625 5.5 51.90625 5.109375 
C 51.90625 2.390625 47.59375 2.390625 45.703125 2.390625 
L 45.703125 0 
C 48.59375 0 53.796875 0 56.90625 0 
C 59.5 0 64.5 0 66.90625 -0.203125 
L 66.90625 2.390625 
C 61.59375 2.390625 59.796875 2.390625 58.5 6.046875 
z
M 32.296875 60.828125 
L 44.5 26.59375 
L 20.09375 26.59375 
z
" id="CMR17-65"/>
      <path d="M 11.09375 18.1875 
C 13 16.6875 16.296875 15 20.296875 15 
C 28.203125 15 35 21.203125 35 29.5 
C 35 32.09375 34.203125 36.09375 31.203125 39.203125 
C 34 42.0625 38.09375 43 40.40625 43 
C 40.796875 43 41.40625 43 41.90625 42.71875 
C 41.5 42.625 40.59375 42.234375 40.59375 40.703125 
C 40.59375 39.484375 41.5 38.609375 42.796875 38.609375 
C 44.296875 38.609375 45.09375 39.578125 45.09375 40.84375 
C 45.09375 42.671875 43.59375 44.59375 40.40625 44.59375 
C 36.40625 44.59375 32.90625 42.78125 30.09375 40.3125 
C 27.09375 43.015625 23.5 44 20.296875 44 
C 12.40625 44 5.59375 37.796875 5.59375 29.5 
C 5.59375 23.78125 8.90625 20.1875 9.90625 19.1875 
C 6.90625 15.6875 6.90625 11.609375 6.90625 11.109375 
C 6.90625 8.515625 7.90625 4.71875 11.296875 2.625 
C 6.09375 1.328125 2 -2.640625 2 -7.59375 
C 2 -14.734375 11.5 -20 22.90625 -20 
C 33.90625 -20 43.796875 -14.9375 43.796875 -7.484375 
C 43.796875 6 29 6 21.296875 6 
C 19 6 14.90625 6 14.40625 6.109375 
C 11.296875 6.609375 9.203125 9.40625 9.203125 12.90625 
C 9.203125 13.796875 9.203125 16 11.09375 18.1875 
z
M 20.296875 16.6875 
C 11.5 16.6875 11.5 27.5 11.5 29.515625 
C 11.5 31.5 11.5 42.3125 20.296875 42.3125 
C 29.09375 42.3125 29.09375 31.5 29.09375 29.515625 
C 29.09375 27.5 29.09375 16.6875 20.296875 16.6875 
z
M 22.90625 -18.296875 
C 12.90625 -18.296875 6 -13.046875 6 -7.59375 
C 6 -4.515625 7.703125 -1.640625 9.90625 -0.0625 
C 12.40625 1.625 13.40625 1.625 20.203125 1.625 
C 28.40625 1.625 39.796875 1.625 39.796875 -7.59375 
C 39.796875 -13.046875 32.90625 -18.296875 22.90625 -18.296875 
z
" id="CMR17-103"/>
      <path d="M 62.09375 67.015625 
C 62.09375 68.796875 62 68.90625 61.40625 68.90625 
C 61 68.90625 60.90625 68.796875 60.203125 67.609375 
L 55.796875 59.25 
C 50.90625 65.421875 44.90625 69 37.203125 69 
C 20.09375 69 4.59375 54 4.59375 33.5625 
C 4.59375 12.90625 20.09375 -2 37.296875 -2 
C 52.59375 -2 62.09375 11.40625 62.09375 22.828125 
C 62.09375 23.8125 62.09375 24.21875 61.203125 24.21875 
C 60.40625 24.21875 60.40625 23.921875 60.296875 23.03125 
C 59.5 9.140625 49.5 0.59375 38.703125 0.59375 
C 28.5 0.59375 12.203125 7.734375 12.203125 33.546875 
C 12.203125 59.453125 28.796875 66.40625 38.5 66.40625 
C 49.796875 66.40625 58 56.6875 59.90625 42.890625 
C 60.09375 41.6875 60.09375 41.484375 61 41.484375 
C 62.09375 41.484375 62.09375 41.6875 62.09375 43.484375 
z
" id="CMR17-67"/>
     </defs>
     <use transform="scale(0.996264)" xlink:href="#CMR17-65"/>
     <use transform="translate(69.07243 0)scale(0.996264)" xlink:href="#CMR17-118"/>
     <use transform="translate(114.762892 0)scale(0.996264)" xlink:href="#CMR17-101"/>
     <use transform="translate(155.248552 0)scale(0.996264)" xlink:href="#CMR17-114"/>
     <use transform="translate(190.52932 0)scale(0.996264)" xlink:href="#CMR17-97"/>
     <use transform="translate(236.219797 0)scale(0.996264)" xlink:href="#CMR17-103"/>
     <use transform="translate(281.910274 0)scale(0.996264)" xlink:href="#CMR17-101"/>
     <use transform="translate(352.471901 0)scale(0.996264)" xlink:href="#CMR17-67"/>
     <use transform="translate(418.981782 0)scale(0.996264)" xlink:href="#CMR17-97"/>
     <use transform="translate(464.672259 0)scale(0.996264)" xlink:href="#CMR17-108"/>
     <use transform="translate(489.543317 0)scale(0.996264)" xlink:href="#CMR17-105"/>
     <use transform="translate(514.414376 0)scale(0.996264)" xlink:href="#CMR17-98"/>
     <use transform="translate(565.309745 0)scale(0.996264)" xlink:href="#CMR17-114"/>
     <use transform="translate(600.590513 0)scale(0.996264)" xlink:href="#CMR17-97"/>
     <use transform="translate(646.28099 0)scale(0.996264)" xlink:href="#CMR17-116"/>
     <use transform="translate(681.561758 0)scale(0.996264)" xlink:href="#CMR17-105"/>
     <use transform="translate(706.432817 0)scale(0.996264)" xlink:href="#CMR17-111"/>
     <use transform="translate(752.123294 0)scale(0.996264)" xlink:href="#CMR17-110"/>
    </g>
   </g>
  </g>
 </g>
 <defs>
  <clipPath id="p8536f4f08e">
   <rect height="277.2" width="277.2" x="47.048487" y="22.885876"/>
  </clipPath>
 </defs>
</svg>
