<?xml version="1.0" encoding="UTF-8" standalone="no"?>
<svg
   xmlns:dc="http://purl.org/dc/elements/1.1/"
   xmlns:cc="http://creativecommons.org/ns#"
   xmlns:rdf="http://www.w3.org/1999/02/22-rdf-syntax-ns#"
   xmlns:svg="http://www.w3.org/2000/svg"
   xmlns="http://www.w3.org/2000/svg"
   xmlns:sodipodi="http://sodipodi.sourceforge.net/DTD/sodipodi-0.dtd"
   xmlns:inkscape="http://www.inkscape.org/namespaces/inkscape"
   version="1.1"
   viewBox="0 0 234.45418 351.53998"
   stroke-miterlimit="10"
   id="svg17"
   sodipodi:docname="recal_arrow_opt.svg"
   width="234.45418"
   height="351.53998"
   style="fill:none;stroke:none;stroke-linecap:square;stroke-miterlimit:10"
   inkscape:version="0.92.2 5c3e80d, 2017-08-06">
  <metadata
     id="metadata23">
    <rdf:RDF>
      <cc:Work
         rdf:about="">
        <dc:format>image/svg+xml</dc:format>
        <dc:type
           rdf:resource="http://purl.org/dc/dcmitype/StillImage" />
        <dc:title></dc:title>
      </cc:Work>
    </rdf:RDF>
  </metadata>
  <defs
     id="defs21"
     style="stroke-linecap:butt;stroke-linejoin:round">
    <style
       id="style5225"
       type="text/css">*{stroke-linecap:butt;stroke-linejoin:round;}</style>
    <path
       id="CMR17-48"
       d="M 42,31.640625 C 42,37.75 41.90625,48.125 37.703125,56.109375 34,63.109375 28.09375,65.59375 22.90625,65.59375 18.09375,65.59375 12,63.40625 8.203125,56.203125 4.203125,48.71875 3.796875,39.4375 3.796875,31.640625 3.796875,25.953125 3.90625,17.28125 7,9.671875 11.296875,-0.609375 19,-2 22.90625,-2 27.5,-2 34.5,-0.109375 38.59375,9.375 41.59375,16.28125 42,24.359375 42,31.640625 Z M 22.90625,-0.40625 c -6.40625,0 -10.203125,5.484375 -11.609375,13.09375 -1.09375,5.875 -1.09375,14.46875 -1.09375,20.0625 0,7.6875 0,14.078125 1.296875,20.171875 C 13.40625,61.390625 19,64 22.90625,64 27,64 32.296875,61.296875 34.203125,53.125 35.5,47.4375 35.59375,40.734375 35.59375,32.75 c 0,-6.5 0,-14.484375 -1.1875,-20.375 -2.109375,-10.890625 -8,-12.78125 -11.5,-12.78125 z"
       inkscape:connector-curvature="0"
       style="stroke-linecap:butt;stroke-linejoin:round" />
    <path
       id="CMMI12-58"
       d="m 18.40625,4.796875 c 0,2.890625 -2.40625,4.875 -4.8125,4.875 -2.890625,0 -4.890625,-2.390625 -4.890625,-4.78125 C 8.703125,2 11.09375,0 13.5,0 c 2.90625,0 4.90625,2.390625 4.90625,4.796875 z"
       inkscape:connector-curvature="0"
       style="stroke-linecap:butt;stroke-linejoin:round" />
    <path
       id="CMR17-50"
       d="M 41.703125,15.453125 H 39.90625 C 38.90625,8.375 38.09375,7.171875 37.703125,6.5625 37.203125,5.765625 30,5.765625 28.59375,5.765625 H 9.40625 C 13,9.671875 20,16.75 28.5,24.953125 34.59375,30.734375 41.703125,37.53125 41.703125,47.421875 41.703125,59.21875 32.296875,66 21.796875,66 10.796875,66 4.09375,56.3125 4.09375,47.34375 4.09375,43.4375 7,42.9375 8.203125,42.9375 c 1,0 4,0.609375 4,4.09375 0,3.078125 -2.609375,3.96875 -4,3.96875 C 7.59375,51 7,50.90625 6.59375,50.703125 8.5,59.21875 14.296875,63.40625 20.40625,63.40625 c 8.6875,0 14.390625,-6.890625 14.390625,-15.984375 C 34.796875,38.734375 29.703125,31.25 24,24.75 L 4.09375,2.28125 V 0 h 35.203125 z"
       inkscape:connector-curvature="0"
       style="stroke-linecap:butt;stroke-linejoin:round" />
    <path
       id="CMR17-52"
       d="M 33.59375,64.40625 C 33.59375,66.5 33.5,66.5 31.703125,66.5 L 2,19.59375 V 17 H 27.796875 V 7.140625 C 27.796875,3.5 27.59375,2.5 20.59375,2.5 H 18.703125 V 0 c 3.203125,0 8.59375,0 12,0 3.390625,0 8.796875,0 12,0 v 2.5 h -1.90625 c -7,0 -7.203125,1 -7.203125,4.640625 V 17 h 10.203125 v 2.59375 H 33.59375 Z m -5.5,-6.546875 V 19.59375 H 4 Z"
       inkscape:connector-curvature="0"
       style="stroke-linecap:butt;stroke-linejoin:round" />
    <path
       id="CMR17-54"
       d="m 10.59375,34 c 0,23.65625 11.203125,29 17.703125,29 C 30.40625,63 35.5,62.640625 37.5,59 c -1.59375,0 -4.59375,0 -4.59375,-3.484375 0,-2.6875 2.1875,-3.59375 3.59375,-3.59375 0.90625,0 3.59375,0.390625 3.59375,3.703125 0,6.15625 -5,9.671875 -11.890625,9.671875 C 16.296875,65.296875 3.796875,52.96875 3.796875,31 3.796875,3.953125 15.09375,-2 23.09375,-2 32.796875,-2 42,6.671875 42,20.046875 42,32.515625 33.90625,41.59375 23.703125,41.59375 17.59375,41.59375 13.09375,37.609375 10.59375,30.625 Z m 12.5,-33.609375 C 10.796875,0.390625 10.796875,18.75 10.796875,22.4375 10.796875,29.625 14.203125,40 23.5,40 c 1.703125,0 6.59375,0 9.90625,-6.875 1.796875,-3.90625 1.796875,-7.984375 1.796875,-12.984375 0,-5.390625 0,-9.359375 -2.109375,-13.359375 -2.1875,-4.109375 -5.390625,-6.390625 -10,-6.390625 z"
       inkscape:connector-curvature="0"
       style="stroke-linecap:butt;stroke-linejoin:round" />
    <path
       id="CMR17-56"
       d="M 27.203125,35.375 C 33.5,38.546875 39.90625,43.328125 39.90625,50.984375 c 0,9.03125 -8.8125,14.3125 -16.90625,14.3125 -9.09375,0 -17.09375,-6.5625 -17.09375,-15.609375 0,-2.484375 0.59375,-6.765625 4.5,-10.546875 1,-0.984375 5.1875,-3.96875 7.890625,-5.859375 -4.5,-2.296875 -15,-7.75 -15,-18.6875 C 3.296875,4.359375 13.09375,-2 22.796875,-2 33.5,-2 42.5,5.65625 42.5,15.78125 c 0,9.0625 -6.09375,13.234375 -10.09375,15.921875 z M 14.09375,44.09375 c -0.796875,0.5 -4.796875,3.578125 -4.796875,8.265625 0,6.0625 6.296875,10.640625 13.5,10.640625 C 30.703125,63 36.5,57.4375 36.5,50.96875 36.5,41.703125 26.09375,36.421875 25.59375,36.421875 c -0.09375,0 -0.1875,0 -1,0.609375 z M 32.5,23.734375 C 34,22.640625 38.796875,19.375 38.796875,13.296875 38.796875,5.953125 31.40625,0.390625 23,0.390625 c -9.09375,0 -16,6.453125 -16,14.296875 0,7.859375 6.09375,14.40625 13,17.5 z"
       inkscape:connector-curvature="0"
       style="stroke-linecap:butt;stroke-linejoin:round" />
    <path
       id="CMR17-49"
       d="M 26.59375,63.40625 C 26.59375,65.5 26.5,65.5 25.09375,65.5 21.203125,61.1875 15.296875,59.796875 9.703125,59.796875 c -0.296875,0 -0.796875,0 -0.90625,-0.296875 C 8.703125,59.296875 8.703125,59.09375 8.703125,57 11.796875,57 17,57.59375 21,59.984375 V 7.203125 C 21,3.6875 20.796875,2.5 12.203125,2.5 h -3 V 0 C 14,0 19,0 23.796875,0 28.59375,0 33.59375,0 38.40625,0 v 2.5 h -3 c -8.609375,0 -8.8125,1.09375 -8.8125,4.65625 z"
       inkscape:connector-curvature="0"
       style="stroke-linecap:butt;stroke-linejoin:round" />
    <path
       id="CMR17-80"
       d="m 19.796875,31.90625 h 16 c 12.90625,0 22.296875,8.375 22.296875,17.84375 0,9.484375 -9.1875,18.25 -22.296875,18.25 H 5.203125 v -2.59375 c 6.890625,0 8,0 8,-4.484375 V 6.96875 C 13.203125,2.5 12.09375,2.5 5.203125,2.5 V 0 C 8.09375,0 13.40625,0 16.5,0 c 3.09375,0 8.40625,0 11.296875,0 v 2.5 c -6.890625,0 -8,0 -8,4.46875 z M 19.59375,34 v 27.53125 c 0,3.390625 0.203125,3.875 4.203125,3.875 H 33.90625 C 46.796875,65.40625 50.5,58.03125 50.5,49.75 50.5,40.6875 46.09375,34 33.90625,34 Z"
       inkscape:connector-curvature="0"
       style="stroke-linecap:butt;stroke-linejoin:round" />
    <path
       id="CMR17-114"
       d="M 15,23.390625 C 15,33 19.09375,42 26.59375,42 27.296875,42 28,41.90625 28.703125,41.59375 c 0,0 -2.203125,-0.703125 -2.203125,-3.28125 0,-2.40625 1.90625,-3.40625 3.40625,-3.40625 1.1875,0 3.390625,0.703125 3.390625,3.5 0,3.203125 -3.203125,5.1875 -6.59375,5.1875 -7.609375,0 -10.90625,-7.390625 -11.90625,-10.890625 h -0.09375 V 43.59375 L 3.09375,42.5 V 39.90625 C 9,39.90625 9.90625,39.296875 9.90625,34.5 V 6.6875 C 9.90625,2.875 9.5,2.390625 3.09375,2.390625 v -2.59375 C 5.5,0 10.09375,0 12.703125,0 c 2.890625,0 8,0 10.703125,-0.203125 v 2.59375 C 16.203125,2.390625 15,2.390625 15,6.875 Z"
       inkscape:connector-curvature="0"
       style="stroke-linecap:butt;stroke-linejoin:round" />
    <path
       id="CMR17-101"
       d="M 38.09375,23 C 38.5,23.40625 38.5,23.609375 38.5,24.625 38.5,34.96875 33.09375,44 21.703125,44 c -10.609375,0 -19,-10.109375 -19,-22.390625 0,-13 9.5,-22.609375 20.09375,-22.609375 C 34,-1 38.40625,9.484375 38.40625,11.5625 c 0,0.6875 -0.609375,0.6875 -0.8125,0.6875 -0.6875,0 -0.796875,-0.203125 -1.1875,-1.375 C 34.203125,4.140625 28.703125,0.796875 23.5,0.796875 19.203125,0.796875 14.90625,3.171875 12.203125,7.5 9.09375,12.546875 9.09375,18.375 9.09375,23 Z M 9.203125,24.5 c 0.703125,14.640625 8.390625,17.90625 12.390625,17.90625 6.8125,0 11.40625,-6.515625 11.5,-17.90625 z"
       inkscape:connector-curvature="0"
       style="stroke-linecap:butt;stroke-linejoin:round" />
    <path
       id="CMR17-100"
       d="M 29.203125,67.59375 V 65 C 35.09375,65 36,64.40625 36,59.6875 V 36.640625 c -0.40625,0.5 -4.5,6.953125 -12.59375,6.953125 C 13.203125,43.59375 3.296875,34.5 3.296875,21.3125 3.296875,8.203125 12.59375,-1 22.40625,-1 c 8.5,0 12.890625,6.265625 13.390625,6.9375 V -0.984375 H 47.90625 V 2 C 42,2 41.09375,2.59375 41.09375,7.390625 V 68.6875 Z m 6.59375,-55.796875 c 0,-3 -1.796875,-5.703125 -4.09375,-7.703125 -3.40625,-3 -6.796875,-3.5 -8.703125,-3.5 -2.90625,0 -13.296875,1.5 -13.296875,20.59375 C 9.703125,40.8125 21.296875,42 23.90625,42 28.5,42 32.203125,39.40625 34.5,35.796875 c 1.296875,-2.09375 1.296875,-2.390625 1.296875,-4.1875 z"
       inkscape:connector-curvature="0"
       style="stroke-linecap:butt;stroke-linejoin:round" />
    <path
       id="CMR17-105"
       d="m 15.5,61.078125 c 0,2.1875 -1.796875,4.078125 -4.09375,4.078125 -2.203125,0 -4.109375,-1.78125 -4.109375,-4.078125 C 7.296875,58.890625 9.09375,57 11.40625,57 13.59375,57 15.5,58.796875 15.5,61.078125 Z M 3.796875,42.28125 v -2.578125 c 5.609375,0 6.40625,-0.609375 6.40625,-5.375 V 6.671875 c 0,-3.796875 -0.40625,-4.28125 -6.796875,-4.28125 v -2.59375 C 5.796875,0 10.09375,0 12.59375,0 c 2.40625,0 6.5,0 8.8125,-0.203125 v 2.59375 c -5.90625,0 -6.109375,0.59375 -6.109375,4.171875 V 43.375 Z"
       inkscape:connector-curvature="0"
       style="stroke-linecap:butt;stroke-linejoin:round" />
    <path
       id="CMR17-99"
       d="M 34.90625,35 C 33,35 30.203125,35 30.203125,31.515625 c 0,-2.796875 2.296875,-3.59375 3.59375,-3.59375 0.703125,0 3.609375,0.3125 3.609375,3.703125 0,6.921875 -6.8125,12.171875 -14.5,12.171875 -10.609375,0 -19.609375,-9.765625 -19.609375,-22.5 C 3.296875,8.0625 12.703125,-1 22.90625,-1 c 12.390625,0 15.5,11.578125 15.5,12.6875 0,0.40625 -0.109375,0.703125 -0.8125,0.703125 -0.6875,0 -0.796875,-0.09375 -1.1875,-1.40625 -2.609375,-8.171875 -8.3125,-10.1875 -12.609375,-10.1875 -6.390625,0 -14.09375,5.875 -14.09375,20.59375 C 9.703125,36.53125 17.09375,42 23,42 c 3.90625,0 9.703125,-1.796875 11.90625,-7 z"
       inkscape:connector-curvature="0"
       style="stroke-linecap:butt;stroke-linejoin:round" />
    <path
       id="CMR17-116"
       d="m 15.09375,40 h 14 v 2.578125 h -14 V 61 H 13.296875 C 13.09375,50.703125 9.59375,41.6875 1.09375,41.6875 V 40 H 9.796875 V 12.046875 C 9.796875,10.15625 9.796875,-1 21.40625,-1 c 5.890625,0 9.296875,5.78125 9.296875,13.140625 V 17.8125 H 28.90625 V 12.234375 C 28.90625,5.375 26.203125,0.796875 22,0.796875 c -2.90625,0 -6.90625,1.984375 -6.90625,11.046875 z"
       inkscape:connector-curvature="0"
       style="stroke-linecap:butt;stroke-linejoin:round" />
    <path
       id="CMR17-112"
       d="m 22,-16.609375 c -6.40625,0 -6.796875,0.40625 -6.796875,4.28125 V 6.28125 c 2.890625,-4.1875 7.09375,-6.875 12.390625,-6.875 10,0 20.109375,8.765625 20.109375,22.28125 0,12.546875 -8.703125,22.09375 -19,22.09375 -6,0 -10.90625,-3.28125 -13.703125,-7.25 v 7.25 L 3.09375,42.6875 v -2.578125 c 5.90625,0 6.8125,-0.609375 6.8125,-5.375 v -47.0625 c 0,-3.78125 -0.40625,-4.28125 -6.8125,-4.28125 V -19.1875 C 5.5,-19 9.90625,-19 12.5,-19 c 2.59375,0 7.09375,0 9.5,-0.1875 z M 15.203125,31.4375 c 0,1.40625 0,3.484375 3.890625,7.171875 C 19.59375,39.015625 23,42 28,42 35.296875,42 41.296875,32.9375 41.296875,21.59375 41.296875,10.25 34.90625,1 27,1 23.40625,1 19.5,2.6875 16.5,7.375 15.203125,9.5625 15.203125,10.15625 15.203125,11.75 Z"
       inkscape:connector-curvature="0"
       style="stroke-linecap:butt;stroke-linejoin:round" />
    <path
       id="CMR17-111"
       d="M 43.09375,21.1875 C 43.09375,34 33.796875,44 22.90625,44 12,44 2.703125,34 2.703125,21.1875 2.703125,8.609375 12,-1 22.90625,-1 c 10.890625,0 20.1875,9.609375 20.1875,22.1875 z M 22.90625,0.796875 c -4.703125,0 -8.703125,2.796875 -11,6.703125 -2.5,4.484375 -2.8125,10.09375 -2.8125,14.5 0,4.203125 0.203125,9.40625 2.8125,13.90625 2,3.296875 5.890625,6.5 11,6.5 4.5,0 8.296875,-2.5 10.6875,-6 C 36.703125,31.703125 36.703125,25.109375 36.703125,22 c 0,-3.90625 -0.203125,-9.890625 -2.90625,-14.703125 -2.796875,-4.59375 -7.09375,-6.5 -10.890625,-6.5 z"
       inkscape:connector-curvature="0"
       style="stroke-linecap:butt;stroke-linejoin:round" />
    <path
       id="CMR17-110"
       d="m 41.5,30.203125 c 0,5.09375 -1,13.390625 -12.796875,13.390625 -7.90625,0 -12,-6.09375 -13.5,-10.09375 H 15.09375 V 43.59375 L 3.296875,42.5 v -2.59375 c 5.90625,0 6.796875,-0.609375 6.796875,-5.40625 V 6.6875 c 0,-3.8125 -0.390625,-4.296875 -6.796875,-4.296875 v -2.59375 C 5.703125,0 10.09375,0 12.703125,0 c 2.59375,0 7.09375,0 9.5,-0.203125 v 2.59375 c -6.40625,0 -6.796875,0.390625 -6.796875,4.296875 V 25.90625 C 15.40625,35.109375 21,42 28,42 c 7.40625,0 8.203125,-6.59375 8.203125,-11.40625 V 6.6875 c 0,-3.8125 -0.40625,-4.296875 -6.796875,-4.296875 v -2.59375 C 31.796875,0 36.203125,0 38.796875,0 c 2.609375,0 7.109375,0 9.5,-0.203125 v 2.59375 C 41.90625,2.390625 41.5,2.78125 41.5,6.6875 Z"
       inkscape:connector-curvature="0"
       style="stroke-linecap:butt;stroke-linejoin:round" />
    <path
       id="CMR17-118"
       d="M 39.09375,33.796875 C 40,36 41.59375,40 47.40625,40 v 2.59375 c -1.90625,0 -4.40625,0 -6.3125,0 -2.09375,0 -5.390625,0 -7.390625,0.09375 v -2.59375 c 2.5,-0.203125 3.890625,-1.390625 3.890625,-3.984375 0,-0.90625 0,-1.109375 -0.59375,-2.5 L 26,5.890625 14.09375,35.71875 C 13.5,37.015625 13.5,37.203125 13.5,37.609375 13.5,40 16.796875,40 18.296875,40 v 2.6875 C 15.90625,42.59375 11.5,42.59375 9,42.59375 c -2.703125,0 -5.796875,0 -8,0.09375 V 40 c 3.796875,0 5.90625,0 7.09375,-3.09375 l 14.5,-36.21875 C 23.203125,-0.796875 23.296875,-1 24.203125,-1 c 0.890625,0 1,0.203125 1.59375,1.6875 z"
       inkscape:connector-curvature="0"
       style="stroke-linecap:butt;stroke-linejoin:round" />
    <path
       id="CMR17-97"
       d="M 36,25.828125 C 36,32.375 36,35.84375 31.796875,39.734375 28.09375,43 23.796875,44 20.40625,44 12.5,44 6.796875,37.609375 6.796875,30.796875 6.796875,27 9.796875,27 10.40625,27 11.703125,27 14,27.78125 14,30.53125 14,33 12.09375,34.078125 10.40625,34.078125 10,34.078125 9.5,33.96875 9.203125,33.875 c 2.09375,6.625 7.5,8.53125 11,8.53125 5,0 10.5,-4.453125 10.5,-12.953125 V 25 c -5.90625,0 -13,-0.796875 -18.609375,-3.796875 C 5.796875,17.703125 4,12.703125 4,8.90625 4,1.203125 13,-1 18.296875,-1 c 5.5,0 10.609375,3.171875 12.796875,8.984375 0.203125,-4.34375 3,-8.265625 7.40625,-8.265625 2.09375,0 7.40625,1.375 7.40625,9.140625 V 14.375 h -1.8125 V 8.78125 c 0,-6 -2.6875,-6.78125 -4,-6.78125 C 36,2 36,7.15625 36,11.53125 Z M 30.703125,13.59375 c 0,-8.640625 -6.203125,-13 -11.703125,-13 -5,0 -8.90625,3.703125 -8.90625,8.3125 0,2.984375 1.3125,8.28125 7.109375,11.484375 C 22,23.09375 27.5,23.5 30.703125,23.5 Z"
       inkscape:connector-curvature="0"
       style="stroke-linecap:butt;stroke-linejoin:round" />
    <path
       id="CMR17-108"
       d="M 15.296875,68.6875 3.40625,67.59375 V 65 c 5.890625,0 6.796875,-0.59375 6.796875,-5.359375 V 6.65625 c 0,-3.78125 -0.40625,-4.265625 -6.796875,-4.265625 v -2.59375 C 5.796875,0 10.203125,0 12.703125,0 c 2.59375,0 7,0 9.390625,-0.203125 v 2.59375 c -6.390625,0 -6.796875,0.390625 -6.796875,4.265625 z"
       inkscape:connector-curvature="0"
       style="stroke-linecap:butt;stroke-linejoin:round" />
    <path
       id="CMR17-79"
       d="M 67.296875,33.359375 C 67.296875,53.703125 52.59375,69 36,69 19,69 4.59375,53.5 4.59375,33.359375 4.59375,13.203125 19.203125,-2 35.90625,-2 53,-2 67.296875,13.5 67.296875,33.359375 Z M 36,-0.203125 c -11.40625,0 -23.796875,11.3125 -23.796875,34.84375 0,23.421875 13.59375,32.5625 23.703125,32.5625 10.59375,0 23.796875,-9.421875 23.796875,-32.5625 C 59.703125,10.71875 47,-0.203125 36,-0.203125 Z"
       inkscape:connector-curvature="0"
       style="stroke-linecap:butt;stroke-linejoin:round" />
    <path
       id="CMR17-98"
       d="M 15,68.6875 3.09375,67.59375 V 65 C 9,65 9.90625,64.40625 9.90625,59.640625 v -59.84375 h 1.796875 l 2.890625,7.09375 C 17.5,2.203125 21.796875,-1 27.59375,-1 c 10,0 20.109375,8.8125 20.109375,22.40625 0,12.78125 -9,22.1875 -19.109375,22.1875 C 22.40625,43.59375 18,40.296875 15,36.40625 Z m 0.203125,-37.375 c 0,1.78125 0,2.09375 1.390625,4.1875 C 20.5,41.515625 26.09375,42 28,42 31,42 41.296875,40.390625 41.296875,21.5 41.296875,1.6875 29.5,0.59375 27.09375,0.59375 c -3.09375,0 -7.59375,1.1875 -10.796875,7 -1.09375,1.90625 -1.09375,2.109375 -1.09375,3.890625 z"
       inkscape:connector-curvature="0"
       style="stroke-linecap:butt;stroke-linejoin:round" />
    <path
       id="CMR17-115"
       d="m 30.90625,42.140625 c 0,1.8125 -0.109375,1.90625 -0.703125,1.90625 -0.40625,0 -0.5,-0.09375 -1.703125,-1.59375 -0.296875,-0.40625 -1.203125,-1.421875 -1.5,-1.8125 -3.203125,3.40625 -7.703125,3.40625 -9.40625,3.40625 C 6.5,44.046875 2.5,38.234375 2.5,32.4375 c 0,-9.03125 10.203125,-11.109375 13.09375,-11.734375 6.3125,-1.28125 8.5,-1.6875 10.609375,-3.5 1.296875,-1.1875 3.5,-3.390625 3.5,-6.984375 0,-4.21875 -2.40625,-9.625 -11.609375,-9.625 -8.6875,0 -11.796875,6.59375 -13.59375,15.359375 -0.296875,1.390625 -0.296875,1.5 -1.09375,1.5 -0.8125,0 -0.90625,-0.109375 -0.90625,-2.09375 v -14.375 c 0,-1.78125 0.09375,-1.890625 0.703125,-1.890625 0.5,0 0.59375,0.109375 1.09375,0.90625 C 4.90625,0.890625 6.40625,3.296875 7,4.3125 9,1.609375 12.5,-1 18.09375,-1 28,-1 33.296875,4.421875 33.296875,12.25 c 0,5.125 -2.703125,7.828125 -4,9.03125 -3,3.109375 -6.5,3.8125 -10.703125,4.609375 -5.5,1.21875 -12.5,2.625 -12.5,8.75 0,2.59375 1.40625,8.125 11.5,8.125 10.703125,0 11.3125,-10.046875 11.5,-13.265625 C 29.203125,29 29.703125,28.890625 30,28.890625 c 0.90625,0 0.90625,0.3125 0.90625,2.015625 z"
       inkscape:connector-curvature="0"
       style="stroke-linecap:butt;stroke-linejoin:round" />
    <path
       id="CMR17-77"
       d="m 20.90625,66 c -0.609375,1.5 -0.703125,1.5 -2.8125,1.5 H 5.296875 V 65 c 6.90625,0 8,0 8,-4.453125 V 9.53125 c 0,-2.484375 0,-7.140625 -8,-7.140625 v -2.59375 C 7.59375,0 11.796875,0 14.296875,0 c 2.5,0 6.703125,0 9,-0.203125 v 2.59375 c -8,0 -8,4.65625 -8,7.140625 v 55.078125 h 0.109375 l 23.5,-63.21875 c 0.390625,-1 0.59375,-1.59375 1.390625,-1.59375 0.796875,0 1,0.59375 1.40625,1.59375 L 65.40625,65.09375 H 65.5 v -58.25 c 0,-4.453125 -1.09375,-4.453125 -8,-4.453125 v -2.59375 C 60.203125,0 65.59375,0 68.5,0 c 2.90625,0 8.40625,0 11.09375,-0.203125 v 2.59375 c -6.890625,0 -8,0 -8,4.453125 V 60.546875 C 71.59375,65 72.703125,65 79.59375,65 v 2.5 h -12.6875 c -2.109375,0 -2.203125,-0.09375 -2.8125,-1.59375 L 42.5,7.84375 Z"
       inkscape:connector-curvature="0"
       style="stroke-linecap:butt;stroke-linejoin:round" />
    <path
       id="CMR17-61"
       d="m 64.296875,31.515625 c 1.5,0 3,0 3,1.6875 C 67.296875,35 65.59375,35 63.90625,35 H 8 c -1.703125,0 -3.40625,0 -3.40625,-1.796875 0,-1.6875 1.5,-1.6875 3,-1.6875 z M 63.90625,14 c 1.6875,0 3.390625,0 3.390625,1.796875 0,1.6875 -1.5,1.6875 -3,1.6875 H 7.59375 c -1.5,0 -3,0 -3,-1.6875 C 4.59375,14 6.296875,14 8,14 Z"
       inkscape:connector-curvature="0"
       style="stroke-linecap:butt;stroke-linejoin:round" />
    <path
       id="CMR17-46"
       d="m 16.59375,4.078125 c 0,2.484375 -2,4.078125 -4.09375,4.078125 -2,0 -4.09375,-1.59375 -4.09375,-4.078125 C 8.40625,1.59375 10.40625,0 12.5,0 c 2,0 4.09375,1.59375 4.09375,4.078125 z"
       inkscape:connector-curvature="0"
       style="stroke-linecap:butt;stroke-linejoin:round" />
    <path
       id="CMR17-65"
       d="M 36.296875,68.40625 C 35.796875,69.703125 35.59375,70 34.59375,70 c -1,0 -1.1875,-0.296875 -1.6875,-1.59375 L 11.703125,8.84375 C 9.796875,3.484375 5.796875,2.390625 2.296875,2.390625 v -2.59375 C 4.09375,0 8.09375,0 10,0 c 2.5,0 6.5,0 8.90625,-0.203125 v 2.59375 c -4.703125,0 -5.40625,3.25 -5.40625,4.46875 0,0.90625 0.203125,1.421875 0.40625,2.03125 L 19.203125,24 H 45.40625 l 6,-17.09375 c 0.5,-1.203125 0.5,-1.40625 0.5,-1.796875 0,-2.71875 -4.3125,-2.71875 -6.203125,-2.71875 V 0 c 2.890625,0 8.09375,0 11.203125,0 2.59375,0 7.59375,0 10,-0.203125 v 2.59375 c -5.3125,0 -7.109375,0 -8.40625,3.65625 z m -4,-7.578125 L 44.5,26.59375 H 20.09375 Z"
       inkscape:connector-curvature="0"
       style="stroke-linecap:butt;stroke-linejoin:round" />
    <path
       id="CMR17-103"
       d="M 11.09375,18.1875 C 13,16.6875 16.296875,15 20.296875,15 28.203125,15 35,21.203125 35,29.5 35,32.09375 34.203125,36.09375 31.203125,39.203125 34,42.0625 38.09375,43 40.40625,43 c 0.390625,0 1,0 1.5,-0.28125 -0.40625,-0.09375 -1.3125,-0.484375 -1.3125,-2.015625 0,-1.21875 0.90625,-2.09375 2.203125,-2.09375 1.5,0 2.296875,0.96875 2.296875,2.234375 0,1.828125 -1.5,3.75 -4.6875,3.75 -4,0 -7.5,-1.8125 -10.3125,-4.28125 C 27.09375,43.015625 23.5,44 20.296875,44 12.40625,44 5.59375,37.796875 5.59375,29.5 c 0,-5.71875 3.3125,-9.3125 4.3125,-10.3125 -3,-3.5 -3,-7.578125 -3,-8.078125 0,-2.59375 1,-6.390625 4.390625,-8.484375 C 6.09375,1.328125 2,-2.640625 2,-7.59375 2,-14.734375 11.5,-20 22.90625,-20 c 11,0 20.890625,5.0625 20.890625,12.515625 C 43.796875,6 29,6 21.296875,6 19,6 14.90625,6 14.40625,6.109375 c -3.109375,0.5 -5.203125,3.296875 -5.203125,6.796875 0,0.890625 0,3.09375 1.890625,5.28125 z m 9.203125,-1.5 C 11.5,16.6875 11.5,27.5 11.5,29.515625 11.5,31.5 11.5,42.3125 20.296875,42.3125 c 8.796875,0 8.796875,-10.8125 8.796875,-12.796875 0,-2.015625 0,-12.828125 -8.796875,-12.828125 z m 2.609375,-34.984375 c -10,0 -16.90625,5.25 -16.90625,10.703125 0,3.078125 1.703125,5.953125 3.90625,7.53125 2.5,1.6875 3.5,1.6875 10.296875,1.6875 8.203125,0 19.59375,0 19.59375,-9.21875 0,-5.453125 -6.890625,-10.703125 -16.890625,-10.703125 z"
       inkscape:connector-curvature="0"
       style="stroke-linecap:butt;stroke-linejoin:round" />
    <path
       id="CMR17-67"
       d="m 62.09375,67.015625 c 0,1.78125 -0.09375,1.890625 -0.6875,1.890625 -0.40625,0 -0.5,-0.109375 -1.203125,-1.296875 L 55.796875,59.25 C 50.90625,65.421875 44.90625,69 37.203125,69 20.09375,69 4.59375,54 4.59375,33.5625 4.59375,12.90625 20.09375,-2 37.296875,-2 52.59375,-2 62.09375,11.40625 62.09375,22.828125 c 0,0.984375 0,1.390625 -0.890625,1.390625 -0.796875,0 -0.796875,-0.296875 -0.90625,-1.1875 C 59.5,9.140625 49.5,0.59375 38.703125,0.59375 c -10.203125,0 -26.5,7.140625 -26.5,32.953125 0,25.90625 16.59375,32.859375 26.296875,32.859375 11.296875,0 19.5,-9.71875 21.40625,-23.515625 0.1875,-1.203125 0.1875,-1.40625 1.09375,-1.40625 1.09375,0 1.09375,0.203125 1.09375,2 z"
       inkscape:connector-curvature="0"
       style="stroke-linecap:butt;stroke-linejoin:round" />
    <clipPath
       id="p09855efbfe"
       style="stroke-linecap:butt;stroke-linejoin:round">
      <rect
         id="rect5685"
         y="22.885876"
         x="47.048489"
         width="277.20001"
         height="277.20001"
         style="stroke-linecap:butt;stroke-linejoin:round" />
    </clipPath>
  </defs>
  <sodipodi:namedview
     pagecolor="#ffffff"
     bordercolor="#666666"
     borderopacity="1"
     objecttolerance="10"
     gridtolerance="10"
     guidetolerance="10"
     inkscape:pageopacity="0"
     inkscape:pageshadow="2"
     inkscape:window-width="1627"
     inkscape:window-height="900"
     id="namedview19"
     showgrid="false"
     showborder="true"
     inkscape:showpageshadow="false"
     fit-margin-top="1"
     fit-margin-left="1"
     fit-margin-right="1"
     fit-margin-bottom="1"
     inkscape:zoom="0.95459415"
     inkscape:cx="-356.61085"
     inkscape:cy="104.78298"
     inkscape:window-x="0"
     inkscape:window-y="0"
     inkscape:window-maximized="0"
     inkscape:current-layer="svg17" />
  <clipPath
     id="gdfc359d048_0_0.0"
     style="stroke-linecap:butt;stroke-linejoin:round">
    <path
       d="M 0,0 H 960 V 540 H 0 Z"
       id="path2"
       inkscape:connector-curvature="0"
       style="clip-rule:nonzero;stroke-linecap:butt;stroke-linejoin:round" />
  </clipPath>
  <g
     id="g1136"
     style="stroke-linecap:butt;stroke-linejoin:round"
     transform="translate(0.4704386,0.4704386)">
    <g
       style="stroke-linecap:butt;stroke-linejoin:round"
       transform="translate(26.587372,138.23269)"
       id="g6033">
      <path
         style="fill:#eeeeee;fill-rule:evenodd;stroke-linecap:butt;stroke-linejoin:round"
         inkscape:connector-curvature="0"
         id="path7"
         d="M 2.5,19.783395 H 143.27165 V 2.4999293 L 177.83858,37.066859 143.27165,71.633792 V 54.350326 H 2.5 Z" />
      <path
         style="fill-rule:evenodd;stroke:#595959;stroke-width:1;stroke-linecap:butt;stroke-linejoin:round"
         inkscape:connector-curvature="0"
         id="path9"
         d="M 2.5,19.783395 H 143.27165 V 2.4999293 L 177.83858,37.066859 143.27165,71.633792 V 54.350326 H 2.5 Z" />
      <path
         style="fill:#000000;fill-rule:nonzero;stroke-linecap:butt;stroke-linejoin:round"
         inkscape:connector-curvature="0"
         id="path13"
         d="m 40.100979,30.693265 h -1.984375 q -0.01563,1.296875 -0.03125,2.65625 0,1.34375 0,2.90625 h 2.046875 q 1.46875,0 2.34375,-0.8125 0.890625,-0.828125 0.890625,-2.0625 0,-1.25 -0.796875,-1.96875 -0.78125,-0.71875 -2.46875,-0.71875 z m -4.953125,-0.0625 v -0.53125 h 4.984375 q 2.046875,0 3.140625,0.859375 1.109375,0.84375 1.109375,2.421875 0,1.234375 -0.8125,2.140625 -0.8125,0.890625 -2.28125,1.15625 0.734375,0.171875 1.125,0.640625 0.390625,0.46875 0.6875,1.359375 l 1.140625,3.34375 1.671875,0.140625 v 0.515625 q -0.1875,0.0625 -0.515625,0.09375 -0.328125,0.03125 -0.734375,0.03125 -0.75,0 -1.0625,-0.203125 -0.3125,-0.21875 -0.46875,-0.6875 l -1,-3.203125 q -0.203125,-0.71875 -0.5,-1.125 -0.28125,-0.40625 -0.765625,-0.578125 -0.484375,-0.1875 -1.3125,-0.1875 h -1.46875 q 0,1.453125 0,2.71875 0.01563,1.25 0.03125,2.46875 l 1.90625,0.15625 v 0.515625 h -4.875 v -0.515625 l 1.90625,-0.15625 q 0.01563,-1.265625 0.01563,-2.546875 0,-1.28125 0,-2.5625 v -1.015625 q 0,-1.28125 0,-2.5625 0,-1.28125 -0.01563,-2.546875 z m 15.902588,3.578125 q -0.78125,0 -1.453125,0.421875 -0.65625,0.421875 -1.078125,1.1875 -0.421875,0.765625 -0.515625,1.796875 h 4.875 q 0.390625,0 0.53125,-0.203125 0.140625,-0.203125 0.140625,-0.609375 0,-0.671875 -0.296875,-1.265625 -0.296875,-0.609375 -0.859375,-0.96875 -0.5625,-0.359375 -1.34375,-0.359375 z m 0.07813,8.71875 q -1.125,0 -2.0625,-0.515625 -0.921875,-0.515625 -1.5,-1.53125 -0.5625,-1.03125 -0.5625,-2.59375 0,-1.40625 0.5625,-2.453125 0.578125,-1.046875 1.5,-1.625 0.9375,-0.578125 2.015625,-0.578125 1.03125,0 1.796875,0.453125 0.765625,0.453125 1.171875,1.25 0.421875,0.78125 0.421875,1.78125 0,0.34375 -0.03125,0.609375 -0.03125,0.25 -0.09375,0.453125 l -6.359375,-0.01563 q 0.01563,1.375 0.46875,2.265625 0.46875,0.890625 1.21875,1.3125 0.75,0.421875 1.65625,0.421875 0.890625,0 1.578125,-0.328125 0.6875,-0.34375 1.21875,-0.921875 l 0.296875,0.25 q -0.53125,0.8125 -1.40625,1.296875 -0.859375,0.46875 -1.890625,0.46875 z m 9.259567,0 q -1.21875,0 -2.15625,-0.578125 -0.9375,-0.59375 -1.46875,-1.625 -0.515625,-1.046875 -0.515625,-2.4375 0,-1.46875 0.609375,-2.5 0.609375,-1.03125 1.578125,-1.59375 0.984375,-0.5625 2.09375,-0.5625 1.078125,0 1.9375,0.578125 0.859375,0.578125 1.171875,1.5625 -0.109375,0.5 -0.59375,0.5 -0.296875,0 -0.453125,-0.15625 -0.140625,-0.15625 -0.234375,-0.390625 l -0.421875,-1.1875 q -0.34375,-0.1875 -0.703125,-0.25 -0.359375,-0.07813 -0.703125,-0.07813 -0.9375,0 -1.6875,0.484375 -0.734375,0.484375 -1.171875,1.390625 -0.421875,0.890625 -0.421875,2.109375 0,1.203125 0.421875,2.09375 0.4375,0.890625 1.1875,1.390625 0.75,0.484375 1.703125,0.484375 1.703125,0 2.796875,-1.328125 l 0.328125,0.203125 q -0.5,0.859375 -1.328125,1.375 -0.8125,0.515625 -1.96875,0.515625 z m 11.913727,-0.03125 q -0.640625,0 -1,-0.4375 -0.34375,-0.453125 -0.4375,-1.25 -0.828125,0.859375 -1.5,1.296875 -0.671875,0.421875 -1.5625,0.421875 -1.015625,0 -1.703125,-0.578125 -0.671875,-0.59375 -0.671875,-1.671875 0,-0.921875 0.65625,-1.578125 0.65625,-0.671875 2.234375,-1.21875 0.609375,-0.203125 1.25,-0.375 0.65625,-0.1875 1.28125,-0.3125 V 36.67764 q 0,-1 -0.234375,-1.53125 -0.21875,-0.53125 -0.6875,-0.734375 -0.453125,-0.203125 -1.140625,-0.203125 -0.390625,0 -0.78125,0.07813 -0.375,0.0625 -0.765625,0.28125 l -0.359375,1.1875 q -0.15625,0.578125 -0.640625,0.578125 -0.484375,0 -0.578125,-0.515625 0.28125,-1.046875 1.15625,-1.609375 0.890625,-0.578125 2.15625,-0.578125 1.375,0 2.078125,0.6875 0.703125,0.671875 0.703125,2.21875 v 4.125 q 0,0.921875 0.21875,1.265625 0.21875,0.328125 0.625,0.328125 0.34375,0 0.765625,-0.359375 l 0.25,0.3125 q -0.515625,0.6875 -1.3125,0.6875 z m -5.90625,-2.40625 q 0,0.8125 0.46875,1.234375 0.484375,0.40625 1.265625,0.40625 0.625,0 1.203125,-0.3125 0.59375,-0.328125 1.515625,-1.171875 v -2.96875 q -0.609375,0.125 -1.25,0.328125 -0.625,0.1875 -1.109375,0.375 -1.1875,0.453125 -1.640625,0.984375 -0.453125,0.53125 -0.453125,1.125 z m 8.096313,2.1875 v -0.484375 l 1.71875,-0.1875 q 0.01563,-0.75 0.03125,-1.625 0.01563,-0.890625 0.01563,-1.625 v -8.9375 l -1.640625,-0.0625 V 29.27139 l 2.34375,-0.5 0.265625,0.15625 -0.0625,2.65625 v 7.171875 q 0,0.734375 0,1.625 0.01563,0.875 0.04687,1.625 l 1.671875,0.1875 v 0.484375 z m 5.784378,0 v -0.484375 l 1.578125,-0.1875 q 0.01563,-0.703125 0.01563,-1.625 0.01563,-0.9375 0.01563,-1.625 V 37.86514 q 0,-0.828125 0,-1.546875 0,-0.734375 -0.03125,-1.46875 l -1.671875,-0.07813 V 34.28701 l 2.4375,-0.609375 0.21875,0.15625 -0.03125,2.3125 v 2.609375 q 0,0.6875 0,1.625 0.01563,0.921875 0.03125,1.625 l 1.4375,0.1875 v 0.484375 z m 1.984375,-11.703125 q -0.359375,0 -0.609375,-0.21875 -0.25,-0.21875 -0.25,-0.59375 0,-0.390625 0.25,-0.609375 0.25,-0.234375 0.609375,-0.234375 0.359375,0 0.609375,0.234375 0.25,0.21875 0.25,0.609375 0,0.375 -0.25,0.59375 -0.25,0.21875 -0.609375,0.21875 z m 3.599915,11.703125 v -0.484375 l 1.5625,-0.171875 q 0.01563,-0.703125 0.03125,-1.640625 0.01563,-0.9375 0.01563,-1.625 v -8.9375 l -1.640625,-0.0625 V 29.27139 l 2.3125,-0.5 0.28125,0.15625 -0.0625,2.65625 v 3.5625 q 0.6875,-0.828125 1.46875,-1.171875 0.78125,-0.34375 1.531254,-0.34375 1.0625,0 1.85937,0.578125 0.8125,0.5625 1.26563,1.578125 0.45312,1.015625 0.45312,2.375 0,1.4375 -0.46875,2.515625 -0.46875,1.0625 -1.3125,1.65625 -0.84375,0.59375 -1.96875,0.59375 -0.703124,0 -1.437499,-0.3125 -0.734375,-0.328125 -1.390625,-1.15625 l -0.09375,1.328125 z m 5.265629,-8.34375 q -0.640629,0 -1.312504,0.296875 -0.671875,0.296875 -1.4375,1.09375 v 5.1875 q 0.671875,0.6875 1.328125,1 0.671875,0.3125 1.375009,0.3125 0.76562,0 1.42187,-0.40625 0.65625,-0.421875 1.04688,-1.3125 0.40625,-0.890625 0.40625,-2.265625 0,-1.921875 -0.8125,-2.90625 -0.79688,-1 -2.01563,-1 z m 5.54894,8.34375 v -0.484375 l 1.54687,-0.1875 q 0.0312,-0.703125 0.0312,-1.625 0.0156,-0.9375 0.0156,-1.625 V 37.86514 q 0,-1.734375 -0.0625,-3.015625 l -1.64063,-0.07813 V 34.28701 l 2.28125,-0.609375 0.21875,0.15625 0.10938,2.328125 q 0.4375,-1.109375 1.250004,-1.8125 0.8125,-0.71875 1.70312,-0.71875 0.45313,0 0.79688,0.171875 0.35937,0.15625 0.48437,0.390625 0,0.875 -0.78125,0.875 -0.28125,0 -0.51562,-0.125 -0.23438,-0.140625 -0.48438,-0.359375 l -0.20312,-0.1875 q -0.73438,0.296875 -1.28125,0.984375 -0.546884,0.671875 -0.968754,1.71875 v 1.65625 q 0,0.6875 0.0156,1.625 0.0156,0.921875 0.0312,1.625 l 1.671884,0.1875 v 0.484375 z m 14.543564,0.21875 q -0.64063,0 -1,-0.4375 -0.34375,-0.453125 -0.4375,-1.25 -0.82813,0.859375 -1.5,1.296875 -0.67188,0.421875 -1.5625,0.421875 -1.01563,0 -1.70313,-0.578125 -0.67187,-0.59375 -0.67187,-1.671875 0,-0.921875 0.65625,-1.578125 0.65625,-0.671875 2.23437,-1.21875 0.60938,-0.203125 1.25,-0.375 0.65625,-0.1875 1.28125,-0.3125 V 36.67764 q 0,-1 -0.23437,-1.53125 -0.21875,-0.53125 -0.6875,-0.734375 -0.45313,-0.203125 -1.14063,-0.203125 -0.39062,0 -0.78125,0.07813 -0.375,0.0625 -0.76562,0.28125 l -0.35938,1.1875 q -0.15625,0.578125 -0.64062,0.578125 -0.48438,0 -0.57813,-0.515625 0.28125,-1.046875 1.15625,-1.609375 0.89063,-0.578125 2.15625,-0.578125 1.375,0 2.07813,0.6875 0.70312,0.671875 0.70312,2.21875 v 4.125 q 0,0.921875 0.21875,1.265625 0.21875,0.328125 0.625,0.328125 0.34375,0 0.76563,-0.359375 l 0.25,0.3125 q -0.51563,0.6875 -1.3125,0.6875 z m -5.90625,-2.40625 q 0,0.8125 0.46875,1.234375 0.48437,0.40625 1.26562,0.40625 0.625,0 1.20313,-0.3125 0.59375,-0.328125 1.51562,-1.171875 v -2.96875 q -0.60937,0.125 -1.25,0.328125 -0.625,0.1875 -1.10937,0.375 -1.1875,0.453125 -1.64063,0.984375 -0.45312,0.53125 -0.45312,1.125 z m 11.48694,2.4375 q -1,0 -1.46875,-0.546875 -0.45313,-0.546875 -0.45313,-1.609375 0,-0.375 0,-0.671875 0.0156,-0.296875 0.0156,-0.75 v -4.8125 h -1.84375 V 33.99014 l 1.85937,-0.15625 0.3125,-2.625 h 0.6875 l -0.0937,2.65625 h 2.64063 v 0.671875 h -2.65625 v 6.125 q 0,0.859375 0.3125,1.234375 0.32812,0.375 0.90625,0.375 0.40625,0 0.70312,-0.09375 0.29688,-0.109375 0.65625,-0.328125 l 0.25,0.375 q -0.70312,0.703125 -1.82812,0.703125 z m 7.1036,-8.71875 q -0.78125,0 -1.45312,0.421875 -0.65625,0.421875 -1.07813,1.1875 -0.42187,0.765625 -0.51562,1.796875 h 4.875 q 0.39062,0 0.53125,-0.203125 0.14062,-0.203125 0.14062,-0.609375 0,-0.671875 -0.29687,-1.265625 -0.29688,-0.609375 -0.85938,-0.96875 -0.5625,-0.359375 -1.34375,-0.359375 z m 0.0781,8.71875 q -1.125,0 -2.0625,-0.515625 -0.92187,-0.515625 -1.5,-1.53125 -0.5625,-1.03125 -0.5625,-2.59375 0,-1.40625 0.5625,-2.453125 0.57813,-1.046875 1.5,-1.625 0.9375,-0.578125 2.01563,-0.578125 1.03125,0 1.79687,0.453125 0.76563,0.453125 1.17188,1.25 0.42187,0.78125 0.42187,1.78125 0,0.34375 -0.0312,0.609375 -0.0312,0.25 -0.0937,0.453125 l -6.35938,-0.01563 q 0.0156,1.375 0.46875,2.265625 0.46875,0.890625 1.21875,1.3125 0.75,0.421875 1.65625,0.421875 0.89063,0 1.57813,-0.328125 0.6875,-0.34375 1.21875,-0.921875 l 0.29687,0.25 q -0.53125,0.8125 -1.40625,1.296875 -0.85937,0.46875 -1.89062,0.46875 z" />
    </g>
    <rect
       y="0.99422354"
       x="0.99422354"
       height="348.61066"
       width="231.52486"
       id="rect6840"
       style="opacity:1;fill:none;fill-opacity:1;stroke:none;stroke-width:0.92932427;stroke-linecap:round;stroke-linejoin:miter;stroke-miterlimit:4;stroke-dasharray:none;stroke-dashoffset:0;stroke-opacity:1;paint-order:fill markers stroke" />
  </g>
</svg>
